<svg width="47" height="47" viewBox="0 0 47 47" fill="none" xmlns="http://www.w3.org/2000/svg">
<circle cx="23.5" cy="23.5" r="23.5" fill="#040415"/>
<path d="M33.4215 17.392C32.6116 17.6659 31.9366 18.3016 31.3967 19.2993C30.8567 20.2969 30.5868 21.2848 30.5868 22.2629C30.5868 23.4757 30.8953 24.6005 31.5124 25.6373C32.1295 26.6741 32.9587 27.3294 34 27.6033C33.6915 28.6596 33.1804 29.7453 32.4669 30.8603C31.7534 31.9754 31.0303 32.8067 30.2975 33.3545C29.6804 33.7848 28.9091 34 27.9835 34C27.3664 34 26.6529 33.8435 25.843 33.5305C25.1488 33.1784 24.551 33.0023 24.0496 33.0023C23.6639 33.0023 22.8926 33.2371 21.7355 33.7066C21.0413 33.9022 20.5399 34 20.2314 34C19.3058 34 18.3609 33.6088 17.3967 32.8263C16.0083 31.4961 14.9284 29.9116 14.157 28.0728C13.3857 26.234 13 24.3169 13 22.3216C13 20.248 13.5882 18.419 14.7645 16.8345C15.9408 15.25 17.4353 14.4577 19.2479 14.4577C20.2507 14.4577 21.1763 14.6729 22.0248 15.1033C22.6804 15.5336 23.3361 15.7488 23.9917 15.7488C24.6088 15.7488 25.2066 15.6315 25.7851 15.3967C27.2893 14.7707 28.292 14.4577 28.7934 14.4577C30.1433 14.4577 31.3196 14.9077 32.3223 15.8075C32.7851 16.277 33.1515 16.8052 33.4215 17.392ZM23.3554 14.6338C23.3554 13.3818 23.8375 12.1495 24.8017 10.9366C25.7658 9.88028 26.9421 9.23474 28.3306 9C28.3306 10.4867 27.8678 11.7973 26.9421 12.9319C25.9008 14.0665 24.7052 14.6338 23.3554 14.6338Z" fill="#F9FAFB"/>
</svg>
