<svg width="22" height="24" viewBox="0 0 22 24" fill="none" xmlns="http://www.w3.org/2000/svg">
<path d="M11.0018 4.25353C12.1763 4.25353 13.1285 3.30135 13.1285 2.12677C13.1285 0.952185 12.1763 0 11.0018 0C9.82719 0 8.875 0.952185 8.875 2.12677C8.875 3.30135 9.82719 4.25353 11.0018 4.25353Z" fill="url(#paint0_linear_56_14203)"/>
<path d="M8.875 2.12676C8.875 3.30136 9.82717 4.25353 11.0018 4.25353C12.1764 4.25353 13.1285 3.30136 13.1285 2.12676C13.1285 1.87237 13.0837 1.62848 13.0018 1.4024H9.00175C8.91981 1.62848 8.875 1.87237 8.875 2.12676Z" fill="url(#paint1_linear_56_14203)"/>
<path d="M9.4988 3.63058C10.3293 4.46111 11.676 4.46116 12.5065 3.63058C13.337 2.80005 13.337 1.45343 12.5065 0.622895C12.3266 0.443036 12.1225 0.30227 11.9047 0.200317L9.07617 3.0288C9.17817 3.24658 9.31889 3.45072 9.4988 3.63058Z" fill="url(#paint2_linear_56_14203)"/>
<path d="M18.4124 12.019C18.5253 11.5083 18.5868 10.9783 18.591 10.4347C18.6239 6.25835 15.2328 2.81388 11.0565 2.78449C6.83988 2.75482 3.41238 6.16399 3.41238 10.3737C3.41238 10.9572 3.47823 11.5254 3.60292 12.0711C4.11067 14.2934 3.41341 16.5953 1.87595 18.2782C1.66769 18.5062 1.55664 18.7458 1.55664 18.993C1.55664 20.5187 5.78538 21.7555 11.0018 21.7555C16.2182 21.7555 20.4469 20.5187 20.4469 18.993C20.4469 18.7337 20.3247 18.4827 20.0962 18.2447C18.5131 16.5957 17.919 14.2511 18.4124 12.019Z" fill="url(#paint3_linear_56_14203)"/>
<path d="M18.4132 12.019C18.526 11.5083 18.5875 10.9783 18.5918 10.4347C18.6246 6.25835 15.2336 2.81388 11.0572 2.78449C10.2223 2.77863 9.41855 2.90805 8.66602 3.15134V21.6702C9.4133 21.7259 10.1961 21.7555 11.0025 21.7555C16.219 21.7555 20.4477 20.5187 20.4477 18.993C20.4477 18.7337 20.3255 18.4827 20.097 18.2447C18.5138 16.5957 17.9197 14.2511 18.4132 12.019Z" fill="url(#paint4_linear_56_14203)"/>
<path d="M3.41238 10.3737C3.41238 10.9573 3.47823 11.5254 3.60292 12.0711C4.11067 14.2934 3.41341 16.5953 1.87595 18.2782C1.66769 18.5062 1.55664 18.7458 1.55664 18.993C1.55664 20.5187 5.78538 21.7555 11.0018 21.7555C16.2182 21.7555 20.4469 20.5187 20.4469 18.993C20.4469 18.7337 20.3247 18.4827 20.0962 18.2447C18.513 16.5957 17.919 14.251 18.4123 12.019C18.5252 11.5083 18.5867 10.9783 18.5909 10.4347C18.596 9.79126 18.5195 9.16534 18.3717 8.56647H3.6295C3.48798 9.14575 3.41238 9.75086 3.41238 10.3737Z" fill="url(#paint5_linear_56_14203)"/>
<path d="M11.0009 24C16.5761 24 21.0956 21.8018 21.0956 19.0902C21.0956 16.3786 16.5761 14.1804 11.0009 14.1804C5.42579 14.1804 0.90625 16.3786 0.90625 19.0902C0.90625 21.8018 5.42579 24 11.0009 24Z" fill="url(#paint6_linear_56_14203)"/>
<path d="M0.90625 19.0902C0.90625 18.1134 1.49275 17.2034 2.50366 16.4386H19.4982C20.5091 17.2034 21.0956 18.1134 21.0956 19.0902C21.0956 21.8018 16.576 24 11.0009 24C5.4258 24 0.90625 21.8018 0.90625 19.0902Z" fill="url(#paint7_linear_56_14203)"/>
<path d="M11.0001 23.1104C15.5651 23.1104 19.2658 21.4741 19.2658 19.4555C19.2658 17.4369 15.5651 15.8005 11.0001 15.8005C6.43506 15.8005 2.73438 17.4369 2.73438 19.4555C2.73438 21.4741 6.43506 23.1104 11.0001 23.1104Z" fill="url(#paint8_linear_56_14203)"/>
<path d="M11.0001 23.1104C15.5651 23.1104 19.2658 21.4741 19.2658 19.4555C19.2658 17.4369 15.5651 15.8005 11.0001 15.8005C6.43506 15.8005 2.73438 17.4369 2.73438 19.4555C2.73438 21.4741 6.43506 23.1104 11.0001 23.1104Z" fill="url(#paint9_linear_56_14203)"/>
<path d="M11.582 14.1887C16.8872 14.3349 21.0966 16.4733 21.0966 19.0902C21.0966 21.707 16.8872 23.8455 11.582 23.9917V14.1887Z" fill="url(#paint10_linear_56_14203)"/>
<path d="M11.7979 23.0934L8.66406 19.9596V15.9488C9.40506 15.8525 10.189 15.8005 11.0006 15.8005C15.5656 15.8005 19.2663 17.4369 19.2663 19.4555C19.2663 21.3551 15.9888 22.916 11.7979 23.0934Z" fill="url(#paint11_linear_56_14203)"/>
<path d="M7.64258 17.5472C7.64258 17.009 7.76989 16.5008 7.99494 16.0499C7.99494 16.0499 8.92817 15.7462 11.0012 15.7462C13.0742 15.7462 14.0074 16.0499 14.0074 16.0499C14.2325 16.5008 14.3598 17.009 14.3598 17.5472C14.3598 19.4021 12.8561 20.9058 11.0012 20.9058C9.14628 20.9058 7.64258 19.4021 7.64258 17.5472Z" fill="url(#paint12_linear_56_14203)"/>
<path d="M7.64258 17.5472C7.64258 17.009 7.76989 16.5008 7.99494 16.0499C7.99494 16.0499 8.92817 15.7462 11.0012 15.7462C13.0742 15.7462 14.0074 16.0499 14.0074 16.0499C14.2325 16.5008 14.3598 17.009 14.3598 17.5472C14.3598 19.4021 12.8561 20.9058 11.0012 20.9058C9.14628 20.9058 7.64258 19.4021 7.64258 17.5472Z" fill="url(#paint13_linear_56_14203)"/>
<path d="M11.0002 15.7462C13.0732 15.7462 14.0065 16.0499 14.0065 16.0499C14.2315 16.5008 14.3588 17.009 14.3588 17.5472C14.3588 19.4021 12.8551 20.9058 11.0002 20.9058C10.7353 20.9058 10.4778 20.8742 10.2305 20.8162V15.7612C10.4673 15.7517 10.7233 15.7462 11.0002 15.7462Z" fill="url(#paint14_linear_56_14203)"/>
<path d="M7.64258 17.5473C7.64258 17.5192 7.64436 17.4916 7.64506 17.4636H14.3573C14.358 17.4916 14.3598 17.5192 14.3598 17.5473C14.3598 19.4022 12.8561 20.9059 11.0012 20.9059C9.14628 20.9059 7.64258 19.4022 7.64258 17.5473Z" fill="url(#paint15_linear_56_14203)"/>
<defs>
<linearGradient id="paint0_linear_56_14203" x1="9.89523" y1="1.02023" x2="11.7836" y2="2.90859" gradientUnits="userSpaceOnUse">
<stop stop-color="#FEF0AE"/>
<stop offset="1" stop-color="#FAC600"/>
</linearGradient>
<linearGradient id="paint1_linear_56_14203" x1="11.0018" y1="1.77965" x2="11.0018" y2="3.0239" gradientUnits="userSpaceOnUse">
<stop stop-color="#FE9738" stop-opacity="0"/>
<stop offset="1" stop-color="#FE9738"/>
</linearGradient>
<linearGradient id="paint2_linear_56_14203" x1="10.8646" y1="2.00768" x2="12.717" y2="3.6056" gradientUnits="userSpaceOnUse">
<stop stop-color="#FE9738" stop-opacity="0"/>
<stop offset="1" stop-color="#FE9738"/>
</linearGradient>
<linearGradient id="paint3_linear_56_14203" x1="5.85245" y1="12.2699" x2="13.833" y2="12.2699" gradientUnits="userSpaceOnUse">
<stop stop-color="#FEF0AE"/>
<stop offset="1" stop-color="#FAC600"/>
</linearGradient>
<linearGradient id="paint4_linear_56_14203" x1="11.5964" y1="12.4137" x2="18.0522" y2="13.2" gradientUnits="userSpaceOnUse">
<stop stop-color="#FE9738" stop-opacity="0"/>
<stop offset="1" stop-color="#FE9738"/>
</linearGradient>
<linearGradient id="paint5_linear_56_14203" x1="11.0018" y1="12.1254" x2="11.0018" y2="16.6369" gradientUnits="userSpaceOnUse">
<stop stop-color="#FE9738" stop-opacity="0"/>
<stop offset="1" stop-color="#FE9738"/>
</linearGradient>
<linearGradient id="paint6_linear_56_14203" x1="11.0009" y1="14.6807" x2="11.0009" y2="23.813" gradientUnits="userSpaceOnUse">
<stop stop-color="#FEF0AE"/>
<stop offset="1" stop-color="#FAC600"/>
</linearGradient>
<linearGradient id="paint7_linear_56_14203" x1="11.0009" y1="20.2676" x2="11.0009" y2="24.3551" gradientUnits="userSpaceOnUse">
<stop stop-color="#FE9738" stop-opacity="0"/>
<stop offset="1" stop-color="#FE9738"/>
</linearGradient>
<linearGradient id="paint8_linear_56_14203" x1="9.0805" y1="10.8052" x2="12.136" y2="24.5742" gradientUnits="userSpaceOnUse">
<stop stop-color="#FE9738" stop-opacity="0"/>
<stop offset="1" stop-color="#FE9738"/>
</linearGradient>
<linearGradient id="paint9_linear_56_14203" x1="11.0001" y1="20.9639" x2="11.0001" y2="15.7457" gradientUnits="userSpaceOnUse">
<stop stop-color="#FE9738" stop-opacity="0"/>
<stop offset="1" stop-color="#FE9738"/>
</linearGradient>
<linearGradient id="paint10_linear_56_14203" x1="15.2309" y1="19.9869" x2="19.408" y2="23.0617" gradientUnits="userSpaceOnUse">
<stop stop-color="#FE9738" stop-opacity="0"/>
<stop offset="1" stop-color="#FE9738"/>
</linearGradient>
<linearGradient id="paint11_linear_56_14203" x1="15.8556" y1="21.1874" x2="12.452" y2="17.8998" gradientUnits="userSpaceOnUse">
<stop stop-color="#FE9738" stop-opacity="0"/>
<stop offset="1" stop-color="#FE9738"/>
</linearGradient>
<linearGradient id="paint12_linear_56_14203" x1="9.56408" y1="16.8841" x2="12.9096" y2="19.0693" gradientUnits="userSpaceOnUse">
<stop stop-color="#F5FBFF"/>
<stop offset="1" stop-color="#DBD5EF"/>
</linearGradient>
<linearGradient id="paint13_linear_56_14203" x1="10.8011" y1="18.9023" x2="11.3039" y2="15.4987" gradientUnits="userSpaceOnUse">
<stop stop-color="#DBD5EF" stop-opacity="0"/>
<stop offset="0.2853" stop-color="#D9D2EE" stop-opacity="0.285"/>
<stop offset="0.4739" stop-color="#D4C9E9" stop-opacity="0.474"/>
<stop offset="0.6346" stop-color="#CBBAE2" stop-opacity="0.635"/>
<stop offset="0.7795" stop-color="#BFA5D7" stop-opacity="0.78"/>
<stop offset="0.9126" stop-color="#AF8ACA" stop-opacity="0.913"/>
<stop offset="1" stop-color="#A274BF"/>
</linearGradient>
<linearGradient id="paint14_linear_56_14203" x1="11.1974" y1="18.326" x2="14.4463" y2="18.326" gradientUnits="userSpaceOnUse">
<stop stop-color="#DBD5EF" stop-opacity="0"/>
<stop offset="0.2853" stop-color="#D9D2EE" stop-opacity="0.285"/>
<stop offset="0.4739" stop-color="#D4C9E9" stop-opacity="0.474"/>
<stop offset="0.6346" stop-color="#CBBAE2" stop-opacity="0.635"/>
<stop offset="0.7795" stop-color="#BFA5D7" stop-opacity="0.78"/>
<stop offset="0.9126" stop-color="#AF8ACA" stop-opacity="0.913"/>
<stop offset="1" stop-color="#A274BF"/>
</linearGradient>
<linearGradient id="paint15_linear_56_14203" x1="10.4825" y1="17.4952" x2="13.0351" y2="20.5507" gradientUnits="userSpaceOnUse">
<stop stop-color="#DBD5EF" stop-opacity="0"/>
<stop offset="0.2853" stop-color="#D9D2EE" stop-opacity="0.285"/>
<stop offset="0.4739" stop-color="#D4C9E9" stop-opacity="0.474"/>
<stop offset="0.6346" stop-color="#CBBAE2" stop-opacity="0.635"/>
<stop offset="0.7795" stop-color="#BFA5D7" stop-opacity="0.78"/>
<stop offset="0.9126" stop-color="#AF8ACA" stop-opacity="0.913"/>
<stop offset="1" stop-color="#A274BF"/>
</linearGradient>
</defs>
</svg>
