<svg width="56" height="56" viewBox="0 0 56 56" fill="none" xmlns="http://www.w3.org/2000/svg">
<g filter="url(#filter0_di_27_1631)">
<path fill-rule="evenodd" clip-rule="evenodd" d="M4.54837 13.9895C4.82879 7.78998 9.78989 2.82698 15.9893 2.5442L27.92 2L40.0058 2.54745C46.2073 2.82835 51.1708 7.79274 51.4506 13.9943L52 26.1707L51.4575 38.016C51.1737 44.2132 46.2131 49.1725 40.0158 49.4546L28.0346 50L15.987 49.4532C9.78854 49.1719 4.82673 44.2115 4.54359 38.0131L4 26.1131L4.54837 13.9895Z" fill="url(#paint0_linear_27_1631)"/>
</g>
<g filter="url(#filter1_d_27_1631)">
<rect x="30.0005" y="23" width="11" height="16" rx="2" fill="url(#paint1_linear_27_1631)"/>
<g filter="url(#filter2_i_27_1631)">
<path fill-rule="evenodd" clip-rule="evenodd" d="M14.0002 14C14.0002 12.8954 14.8957 12 16.0002 12H34.0002C35.1048 12 36.0002 12.8954 36.0002 14V35.0449V36.0498C36.0002 36.0498 35.9587 36.5858 36.1572 37.5878C36.3557 38.5897 37.58 39 37.58 39H16.0002C14.8957 39 14.0002 38.1046 14.0002 37V14Z" fill="url(#paint2_linear_27_1631)"/>
</g>
<mask id="mask0_27_1631" style="mask-type:luminance" maskUnits="userSpaceOnUse" x="14" y="12" width="24" height="27">
<path fill-rule="evenodd" clip-rule="evenodd" d="M14.0002 14C14.0002 12.8954 14.8957 12 16.0002 12H34.0002C35.1048 12 36.0002 12.8954 36.0002 14V35.0449V36.0498C36.0002 36.0498 35.9587 36.5858 36.1572 37.5878C36.3557 38.5897 37.58 39 37.58 39H16.0002C14.8957 39 14.0002 38.1046 14.0002 37V14Z" fill="white"/>
</mask>
<g mask="url(#mask0_27_1631)">
<path fill-rule="evenodd" clip-rule="evenodd" d="M13.0005 38.9997C13.8519 37.3878 19.2022 32.9997 24.2232 31.7136C30.7727 30.0358 36.8784 18.9997 36.8784 18.9997L38.0738 18.4218L40.4096 30.3761L28.4325 41.0113L14.9849 44.3554C14.9849 44.3554 12.1492 40.6117 13.0005 38.9997Z" fill="url(#paint3_linear_27_1631)"/>
</g>
<rect x="16.2603" y="16.2266" width="12" height="2" rx="1" fill="url(#paint4_linear_27_1631)"/>
<rect x="16.2603" y="21.2266" width="8" height="2" rx="1" fill="url(#paint5_linear_27_1631)"/>
</g>
<defs>
<filter id="filter0_di_27_1631" x="0" y="0" width="56" height="56" filterUnits="userSpaceOnUse" color-interpolation-filters="sRGB">
<feFlood flood-opacity="0" result="BackgroundImageFix"/>
<feColorMatrix in="SourceAlpha" type="matrix" values="0 0 0 0 0 0 0 0 0 0 0 0 0 0 0 0 0 0 127 0" result="hardAlpha"/>
<feOffset dy="2"/>
<feGaussianBlur stdDeviation="2"/>
<feColorMatrix type="matrix" values="0 0 0 0 0.415686 0 0 0 0 0.827451 0 0 0 0 0.262745 0 0 0 0.2 0"/>
<feBlend mode="normal" in2="BackgroundImageFix" result="effect1_dropShadow_27_1631"/>
<feBlend mode="normal" in="SourceGraphic" in2="effect1_dropShadow_27_1631" result="shape"/>
<feColorMatrix in="SourceAlpha" type="matrix" values="0 0 0 0 0 0 0 0 0 0 0 0 0 0 0 0 0 0 127 0" result="hardAlpha"/>
<feOffset dy="1"/>
<feGaussianBlur stdDeviation="1.5"/>
<feComposite in2="hardAlpha" operator="arithmetic" k2="-1" k3="1"/>
<feColorMatrix type="matrix" values="0 0 0 0 0.569785 0 0 0 0 0.93471 0 0 0 0 0.467244 0 0 0 1 0"/>
<feBlend mode="normal" in2="shape" result="effect2_innerShadow_27_1631"/>
</filter>
<filter id="filter1_d_27_1631" x="10.0002" y="10" width="35.0002" height="35" filterUnits="userSpaceOnUse" color-interpolation-filters="sRGB">
<feFlood flood-opacity="0" result="BackgroundImageFix"/>
<feColorMatrix in="SourceAlpha" type="matrix" values="0 0 0 0 0 0 0 0 0 0 0 0 0 0 0 0 0 0 127 0" result="hardAlpha"/>
<feOffset dy="2"/>
<feGaussianBlur stdDeviation="2"/>
<feColorMatrix type="matrix" values="0 0 0 0 0.237348 0 0 0 0 0.649554 0 0 0 0 0.11441 0 0 0 1 0"/>
<feBlend mode="normal" in2="BackgroundImageFix" result="effect1_dropShadow_27_1631"/>
<feBlend mode="normal" in="SourceGraphic" in2="effect1_dropShadow_27_1631" result="shape"/>
</filter>
<filter id="filter2_i_27_1631" x="14.0002" y="12" width="23.5797" height="28" filterUnits="userSpaceOnUse" color-interpolation-filters="sRGB">
<feFlood flood-opacity="0" result="BackgroundImageFix"/>
<feBlend mode="normal" in="SourceGraphic" in2="BackgroundImageFix" result="shape"/>
<feColorMatrix in="SourceAlpha" type="matrix" values="0 0 0 0 0 0 0 0 0 0 0 0 0 0 0 0 0 0 127 0" result="hardAlpha"/>
<feOffset dy="1"/>
<feGaussianBlur stdDeviation="1.5"/>
<feComposite in2="hardAlpha" operator="arithmetic" k2="-1" k3="1"/>
<feColorMatrix type="matrix" values="0 0 0 0 1 0 0 0 0 1 0 0 0 0 1 0 0 0 0.5 0"/>
<feBlend mode="normal" in2="shape" result="effect1_innerShadow_27_1631"/>
</filter>
<linearGradient id="paint0_linear_27_1631" x1="4" y1="2" x2="4" y2="50" gradientUnits="userSpaceOnUse">
<stop stop-color="#73D849"/>
<stop offset="1" stop-color="#24AD12"/>
</linearGradient>
<linearGradient id="paint1_linear_27_1631" x1="35.4384" y1="22.1006" x2="25.8938" y2="35.3726" gradientUnits="userSpaceOnUse">
<stop stop-color="#DBFFD3"/>
<stop offset="1" stop-color="#90EE7A"/>
</linearGradient>
<linearGradient id="paint2_linear_27_1631" x1="37.1961" y1="17.2195" x2="18.8345" y2="4.83346" gradientUnits="userSpaceOnUse">
<stop stop-color="white"/>
<stop offset="1" stop-color="#E4FDDE"/>
</linearGradient>
<linearGradient id="paint3_linear_27_1631" x1="11.7361" y1="36.62" x2="21.1218" y2="55.0245" gradientUnits="userSpaceOnUse">
<stop stop-color="#C8F8B7"/>
<stop offset="0.437519" stop-color="white"/>
<stop offset="1" stop-color="white"/>
</linearGradient>
<linearGradient id="paint4_linear_27_1631" x1="11.5059" y1="16.6228" x2="11.658" y2="18.9267" gradientUnits="userSpaceOnUse">
<stop stop-color="#6DD442"/>
<stop offset="1" stop-color="#35BB1D"/>
</linearGradient>
<linearGradient id="paint5_linear_27_1631" x1="13.0907" y1="21.6228" x2="13.3176" y2="23.9142" gradientUnits="userSpaceOnUse">
<stop stop-color="#6DD442"/>
<stop offset="1" stop-color="#35BB1D"/>
</linearGradient>
</defs>
</svg>
