<svg width="17" height="18" viewBox="0 0 17 18" fill="none" xmlns="http://www.w3.org/2000/svg">
<path d="M8.5 0.5C3.81308 0.5 0 4.31308 0 9C0 13.6869 3.81308 17.5 8.5 17.5C13.1869 17.5 17 13.6869 17 9C17 4.31308 13.1869 0.5 8.5 0.5ZM12.3549 10.1732H8.33239C8.32429 10.1732 8.31645 10.1723 8.30845 10.172C8.30045 10.1723 8.29261 10.1732 8.28451 10.1732C7.8878 10.1732 7.5662 9.85163 7.5662 9.45492V3.61269C7.5662 3.21598 7.8878 2.89438 8.28451 2.89438C8.68122 2.89438 9.00283 3.21598 9.00283 3.61269V8.73663H12.3549C12.7517 8.73663 13.0733 9.05824 13.0733 9.45495C13.0733 9.85166 12.7516 10.1732 12.3549 10.1732Z" fill="url(#paint0_linear_56_11697)"/>
<defs>
<linearGradient id="paint0_linear_56_11697" x1="13.7345" y1="17.5" x2="-8.1302" y2="-22.6138" gradientUnits="userSpaceOnUse">
<stop stop-color="#D19B6F"/>
<stop offset="1" stop-color="#F6E5C3"/>
</linearGradient>
</defs>
</svg>
