<svg width="28" height="28" viewBox="0 0 28 28" fill="none" xmlns="http://www.w3.org/2000/svg">
<circle cx="14" cy="14" r="13.5" fill="#F1F1F1" stroke="#E1E1E1"/>
<path d="M19.4545 9.18182H16.7273V8.63636C16.7273 7.73407 15.9932 7 15.0909 7H12.9091C12.0068 7 11.2727 7.73407 11.2727 8.63636V9.18182H8.54545C8.2442 9.18182 8 9.42602 8 9.72727C8 10.0285 8.2442 10.2727 8.54545 10.2727C8.84622 10.2727 9.09091 10.5174 9.09091 10.8182V19.3273C9.09091 20.2296 9.82498 20.9636 10.7273 20.9636H17.2727C18.175 20.9636 18.9091 20.2296 18.9091 19.3273V10.8182C18.9091 10.5174 19.1538 10.2727 19.4545 10.2727C19.7558 10.2727 20 10.0285 20 9.72727C20 9.42602 19.7558 9.18182 19.4545 9.18182ZM12.3636 8.63636C12.3636 8.3356 12.6083 8.09091 12.9091 8.09091H15.0909C15.3917 8.09091 15.6364 8.3356 15.6364 8.63636V9.18182H12.3636V8.63636ZM17.8182 10.8182V19.3273C17.8182 19.628 17.5735 19.8727 17.2727 19.8727H10.7273C10.4265 19.8727 10.1818 19.628 10.1818 19.3273V10.8182C10.1818 10.627 10.1485 10.4435 10.088 10.2727H17.912C17.8515 10.4435 17.8182 10.627 17.8182 10.8182Z" fill="#7A808A"/>
<path d="M11.8189 11.3636C11.5176 11.3636 11.2734 11.6078 11.2734 11.9091V18.2364C11.2734 18.5376 11.5176 18.7818 11.8189 18.7818C12.1201 18.7818 12.3643 18.5376 12.3643 18.2364V11.9091C12.3643 11.6078 12.1201 11.3636 11.8189 11.3636Z" fill="#7A808A"/>
<path d="M14.0005 11.3636C13.6993 11.3636 13.4551 11.6078 13.4551 11.9091V18.2364C13.4551 18.5376 13.6993 18.7818 14.0005 18.7818C14.3018 18.7818 14.546 18.5376 14.546 18.2364V11.9091C14.546 11.6078 14.3018 11.3636 14.0005 11.3636Z" fill="#7A808A"/>
<path d="M15.6367 11.9091V18.2364C15.6367 18.5376 15.8809 18.7818 16.1822 18.7818C16.4834 18.7818 16.7276 18.5376 16.7276 18.2364V11.9091C16.7276 11.6078 16.4834 11.3636 16.1822 11.3636C15.8809 11.3636 15.6367 11.6078 15.6367 11.9091Z" fill="#7A808A"/>
</svg>
