<svg width="35" height="35" viewBox="0 0 35 35" fill="none" xmlns="http://www.w3.org/2000/svg">
<circle cx="17.0555" cy="17.7343" r="16.5555" fill="#F1F1F1" stroke="#E1E1E1"/>
<path d="M24.4431 11.7511H21.0043V11.0633C21.0043 9.9256 20.0787 9 18.941 9H16.1899C15.0522 9 14.1266 9.9256 14.1266 11.0633V11.7511H10.6878C10.3079 11.7511 10 12.059 10 12.4388C10 12.8187 10.3079 13.1266 10.6878 13.1266C11.067 13.1266 11.3755 13.4351 11.3755 13.8144V24.5435C11.3755 25.6812 12.3011 26.6068 13.4388 26.6068H21.692C22.8297 26.6068 23.7553 25.6812 23.7553 24.5435V13.8144C23.7553 13.4351 24.0639 13.1266 24.4431 13.1266C24.8229 13.1266 25.1309 12.8187 25.1309 12.4388C25.1309 12.059 24.8229 11.7511 24.4431 11.7511ZM15.5021 11.0633C15.5021 10.6841 15.8107 10.3755 16.1899 10.3755H18.941C19.3202 10.3755 19.6287 10.6841 19.6287 11.0633V11.7511H15.5021V11.0633ZM22.3798 13.8144V24.5435C22.3798 24.9228 22.0713 25.2313 21.692 25.2313H13.4388C13.0596 25.2313 12.7511 24.9228 12.7511 24.5435V13.8144C12.7511 13.5733 12.7091 13.3419 12.6328 13.1266H22.4981C22.4217 13.3419 22.3798 13.5733 22.3798 13.8144Z" fill="#7A808A"/>
<path d="M14.8137 14.5021C14.4339 14.5021 14.126 14.81 14.126 15.1899V23.168C14.126 23.5478 14.4339 23.8558 14.8137 23.8558C15.1936 23.8558 15.5015 23.5478 15.5015 23.168V15.1899C15.5015 14.81 15.1936 14.5021 14.8137 14.5021Z" fill="#7A808A"/>
<path d="M17.5647 14.5021C17.1849 14.5021 16.877 14.81 16.877 15.1899V23.168C16.877 23.5478 17.1849 23.8558 17.5647 23.8558C17.9446 23.8558 18.2525 23.5478 18.2525 23.168V15.1899C18.2525 14.81 17.9446 14.5021 17.5647 14.5021Z" fill="#7A808A"/>
<path d="M19.6289 15.1899V23.168C19.6289 23.5478 19.9368 23.8558 20.3167 23.8558C20.6965 23.8558 21.0044 23.5478 21.0044 23.168V15.1899C21.0044 14.81 20.6965 14.5021 20.3167 14.5021C19.9368 14.5021 19.6289 14.81 19.6289 15.1899Z" fill="#7A808A"/>
</svg>
