<svg width="35" height="35" viewBox="0 0 35 35" fill="none" xmlns="http://www.w3.org/2000/svg">
<circle cx="17.0555" cy="17.1668" r="16.5555" fill="#F1F1F1" stroke="#E1E1E1"/>
<path d="M20.5873 14.8263H19.1668V10.1444C19.1668 9.62938 18.7648 9.20801 18.2734 9.20801H14.6999C14.2085 9.20801 13.8065 9.62938 13.8065 10.1444V14.8263H12.386C11.5909 14.8263 11.1888 15.8376 11.7517 16.4276L15.8523 20.7256C16.2008 21.0908 16.7636 21.0908 17.112 20.7256L21.2127 16.4276C21.7755 15.8376 21.3824 14.8263 20.5873 14.8263ZM10.2329 24.1902C10.2329 24.7052 10.6349 25.1266 11.1263 25.1266H21.847C22.3384 25.1266 22.7404 24.7052 22.7404 24.1902C22.7404 23.6752 22.3384 23.2538 21.847 23.2538H11.1263C10.6349 23.2538 10.2329 23.6752 10.2329 24.1902Z" fill="url(#paint0_linear_27_1356)"/>
<defs>
<linearGradient id="paint0_linear_27_1356" x1="20.3378" y1="25.1266" x2="-2.48025" y2="-7.76575" gradientUnits="userSpaceOnUse">
<stop stop-color="#D19B6F"/>
<stop offset="1" stop-color="#F6E5C3"/>
</linearGradient>
</defs>
</svg>
