<svg width="38" height="38" viewBox="0 0 38 38" fill="none" xmlns="http://www.w3.org/2000/svg">
<circle cx="18.911" cy="18.7821" r="18.0321" fill="url(#paint0_linear_27_1470)" stroke="white" stroke-width="1.5"/>
<path d="M23.8006 16.2047H22.2363V11.0488C22.2363 10.4816 21.7936 10.0176 21.2525 10.0176H17.3171C16.776 10.0176 16.3333 10.4816 16.3333 11.0488V16.2047H14.769C13.8934 16.2047 13.4507 17.3184 14.0705 17.968L18.5863 22.7011C18.97 23.1033 19.5898 23.1033 19.9735 22.7011L24.4893 17.968C25.1091 17.3184 24.6762 16.2047 23.8006 16.2047ZM12.3979 26.5165C12.3979 27.0837 12.8407 27.5477 13.3818 27.5477H25.1878C25.7289 27.5477 26.1716 27.0837 26.1716 26.5165C26.1716 25.9494 25.7289 25.4853 25.1878 25.4853H13.3818C12.8407 25.4853 12.3979 25.9494 12.3979 26.5165Z" fill="white"/>
<defs>
<linearGradient id="paint0_linear_27_1470" x1="30.4774" y1="37.5642" x2="-17.8361" y2="-51.0738" gradientUnits="userSpaceOnUse">
<stop stop-color="#D19B6F"/>
<stop offset="1" stop-color="#F6E5C3"/>
</linearGradient>
</defs>
</svg>
