<svg width="24" height="25" viewBox="0 0 24 25" fill="none" xmlns="http://www.w3.org/2000/svg">
<path d="M16.5558 10.1543H14.8333V4.73763C14.8333 4.1418 14.3458 3.6543 13.75 3.6543H9.41667C8.82083 3.6543 8.33333 4.1418 8.33333 4.73763V10.1543H6.61083C5.64667 10.1543 5.15917 11.3243 5.84167 12.0068L10.8142 16.9793C11.2367 17.4018 11.9192 17.4018 12.3417 16.9793L17.3142 12.0068C17.9967 11.3243 17.52 10.1543 16.5558 10.1543ZM4 20.9876C4 21.5835 4.4875 22.071 5.08333 22.071H18.0833C18.6792 22.071 19.1667 21.5835 19.1667 20.9876C19.1667 20.3918 18.6792 19.9043 18.0833 19.9043H5.08333C4.4875 19.9043 4 20.3918 4 20.9876Z" fill="url(#paint0_linear_56_14888)"/>
<defs>
<linearGradient id="paint0_linear_56_14888" x1="16.2533" y1="22.071" x2="-9.68965" y2="-17.1258" gradientUnits="userSpaceOnUse">
<stop stop-color="#D19B6F"/>
<stop offset="1" stop-color="#F6E5C3"/>
</linearGradient>
</defs>
</svg>
