<svg width="21" height="17" viewBox="0 0 21 17" fill="none" xmlns="http://www.w3.org/2000/svg">
<path d="M18.5391 0H2.46094C1.10398 0 0 1.09993 0 2.45192V4.47456L9.03127 11.1675C9.47051 11.493 9.98525 11.6558 10.5 11.6558C11.0147 11.6558 11.5295 11.4931 11.9687 11.1675L21 4.47456V2.45192C21 1.09993 19.896 0 18.5391 0ZM19.3594 3.6532L10.9896 9.85591C10.6968 10.0729 10.3032 10.0729 10.0104 9.85591L1.64062 3.6532V2.45192C1.64062 2.00126 2.00862 1.63462 2.46094 1.63462H18.5391C18.9914 1.63462 19.3594 2.00126 19.3594 2.45192V3.6532ZM19.3594 7.7276L21 6.51178V14.5481C21 15.9001 19.896 17 18.5391 17H2.46094C1.10398 17 0 15.9001 0 14.5481V6.51178L1.64062 7.7276V14.5481C1.64062 14.9987 2.00862 15.3654 2.46094 15.3654H18.5391C18.9914 15.3654 19.3594 14.9987 19.3594 14.5481V7.7276Z" fill="#7A808A"/>
</svg>
