<svg width="21" height="13" viewBox="0 0 21 13" fill="none" xmlns="http://www.w3.org/2000/svg">
<path d="M20.7278 5.49162C20.5433 5.27412 16.1352 0.172333 10.5001 0.172333C4.86479 0.172333 0.456895 5.27412 0.272015 5.49184C-0.0907072 5.91832 -0.0907073 6.53714 0.272228 6.96405C0.456895 7.18156 4.86479 12.2831 10.5001 12.2831C16.1352 12.2831 20.5433 7.18113 20.728 6.96362C21.0907 6.53714 21.0907 5.91832 20.7278 5.49162ZM12.2214 3.23703C12.6003 3.03018 13.1287 3.26752 13.4015 3.76693C13.6742 4.26655 13.588 4.83932 13.2091 5.04616C12.8304 5.25322 12.3018 5.01567 12.0288 4.51626C11.7563 4.01664 11.8422 3.44387 12.2214 3.23703ZM10.5001 10.4348C6.56368 10.4348 3.25099 7.41164 2.10439 6.22773C2.87867 5.42808 4.64153 3.7906 6.9166 2.8114C6.47284 3.48652 6.21269 4.29321 6.21269 5.16153C6.21269 7.52935 8.13207 9.44873 10.4999 9.44873C12.8677 9.44873 14.7873 7.52935 14.7873 5.16153C14.7873 4.29321 14.5274 3.48652 14.0836 2.8114C16.3587 3.79081 18.1213 5.42808 18.8956 6.22773C17.749 7.41228 14.4363 10.4348 10.5001 10.4348Z" fill="url(#paint0_linear_56_11753)"/>
<defs>
<linearGradient id="paint0_linear_56_11753" x1="16.9661" y1="12.2831" x2="6.36212" y2="-21.4508" gradientUnits="userSpaceOnUse">
<stop stop-color="#D19B6F"/>
<stop offset="1" stop-color="#F6E5C3"/>
</linearGradient>
</defs>
</svg>
