<svg width="31" height="31" viewBox="0 0 31 31" fill="none" xmlns="http://www.w3.org/2000/svg">
<g clip-path="url(#clip0_139_579)">
<path d="M30.7052 15.4115C30.7052 6.93249 23.8316 0.0588379 15.3526 0.0588379C6.87366 0.0588379 0 6.93237 0 15.4115C0 23.0743 5.61426 29.4259 12.9538 30.5776V19.8493H9.05565V15.4115H12.9538V12.0291C12.9538 8.18133 15.2459 6.05596 18.7526 6.05596C20.4324 6.05596 22.1893 6.35581 22.1893 6.35581V10.134H20.2535C18.3461 10.134 17.7515 11.3175 17.7515 12.5316V15.4115H22.0094L21.3288 19.8493H17.7515V30.5776C25.091 29.4259 30.7052 23.0745 30.7052 15.4115Z" fill="#1877F2"/>
<path d="M21.3278 19.8493L22.0085 15.4114H17.7505V12.5316C17.7505 11.3173 18.3453 10.1339 20.2525 10.1339H22.1884V6.35576C22.1884 6.35576 20.4315 6.05591 18.7517 6.05591C15.2449 6.05591 12.9528 8.18129 12.9528 12.029V15.4114H9.05469V19.8493H12.9528V30.5775C13.7464 30.7019 14.5484 30.7642 15.3517 30.764C16.1549 30.7643 16.957 30.7019 17.7505 30.5775V19.8493H21.3278Z" fill="white"/>
</g>
<defs>
<clipPath id="clip0_139_579">
<rect width="30.7052" height="30.7052" fill="white" transform="translate(0 0.0588379)"/>
</clipPath>
</defs>
</svg>
