<svg width="49" height="49" viewBox="0 0 49 49" fill="none" xmlns="http://www.w3.org/2000/svg">
<rect x="0.5" y="0.5" width="48" height="48" rx="24" fill="white" stroke="#C4CFE3"/>
<path d="M14.6957 33.6576H18.6524V24.0484L13 19.8091V31.9618C13 32.9001 13.7603 33.6576 14.6957 33.6576Z" fill="#4285F4"/>
<path d="M32.2183 33.6576H36.175C37.1133 33.6576 37.8707 32.8973 37.8707 31.9618V19.8091L32.2183 24.0484" fill="#34A853"/>
<path d="M32.2183 16.7005V24.0487L37.8707 19.8094V17.5484C37.8707 15.4514 35.4769 14.2559 33.8009 15.5135" fill="#FBBC04"/>
<path d="M18.6523 24.0484V16.7002L25.4353 21.7874L32.2182 16.7002V24.0484L25.4353 29.1356" fill="#EA4335"/>
<path d="M13 17.5484V19.8094L18.6524 24.0487V16.7005L17.0698 15.5135C15.391 14.2559 13 15.4514 13 17.5484Z" fill="#C5221F"/>
</svg>
