<svg width="180" height="74" viewBox="0 0 180 74" fill="none" xmlns="http://www.w3.org/2000/svg">
<g filter="url(#filter0_d_56_15020)">
<path d="M164.062 51.375H15.9375C13.2219 51.375 11 49.1531 11 46.4375V6.9375C11 4.22187 13.2219 2 15.9375 2H164.062C166.778 2 169 4.22187 169 6.9375V46.4375C169 49.1531 166.778 51.375 164.062 51.375Z" fill="black"/>
<path d="M15.9375 51.975H164.062C167.109 51.975 169.6 49.4845 169.6 46.4375V6.9375C169.6 3.8905 167.109 1.4 164.062 1.4H15.9375C12.8905 1.4 10.4 3.8905 10.4 6.9375V46.4375C10.4 49.4845 12.8905 51.975 15.9375 51.975Z" stroke="white" stroke-width="1.2"/>
</g>
<path d="M44.3285 26.4407C44.3285 22.6141 47.5379 20.7625 47.6613 20.6391C45.8098 18.0469 43.0942 17.6766 42.1067 17.5532C39.7613 17.3063 37.416 18.911 36.3051 18.911C35.0707 18.911 33.2192 17.5532 31.2442 17.5532C28.652 17.5532 26.3067 19.0344 24.9488 21.3797C22.2332 26.0704 24.2082 32.9829 26.8004 36.8094C28.1582 38.661 29.6395 40.7594 31.6145 40.636C33.5895 40.5125 34.3301 39.4016 36.6754 39.4016C39.0207 39.4016 39.6379 40.636 41.7363 40.636C43.8348 40.636 45.1926 38.7844 46.427 36.9328C47.9082 34.8344 48.5254 32.736 48.5254 32.6125C48.402 32.4891 44.3285 31.0079 44.3285 26.4407Z" fill="white"/>
<path d="M40.502 15.084C41.4895 13.7262 42.2301 11.998 42.1067 10.1465C40.6254 10.2699 38.6504 11.134 37.6629 12.4918C36.6754 13.6027 35.8114 15.4543 36.0582 17.1824C37.6629 17.3059 39.391 16.3184 40.502 15.084Z" fill="white"/>
<path d="M72.4719 40.3891H69.7563L68.275 35.6985H63.0906L61.7328 40.3891H59.1406L64.325 24.4656H67.5344L72.4719 40.3891ZM67.7812 33.7235L66.4234 29.5266C66.3 29.1563 66.0531 28.0453 65.5594 26.5641C65.4359 27.1813 65.1891 28.2922 64.8188 29.5266L63.4609 33.7235H67.7812Z" fill="white"/>
<path d="M85.6797 34.5875C85.6797 36.5625 85.1859 38.0438 84.075 39.2781C83.0875 40.2656 81.9766 40.7594 80.4953 40.7594C79.0141 40.7594 77.9031 40.2656 77.2859 39.1547V45.2031H74.6938V32.8594C74.6938 31.625 74.6938 30.3906 74.5703 29.0328H76.7922L76.9156 30.8844C77.7797 29.5266 79.0141 28.7859 80.7422 28.7859C82.1 28.7859 83.2109 29.2797 84.075 30.3906C85.1859 31.3781 85.6797 32.736 85.6797 34.5875ZM83.0875 34.5875C83.0875 33.4766 82.8406 32.4891 82.3469 31.8719C81.8531 31.1313 81.1125 30.7609 80.125 30.7609C79.5078 30.7609 78.8906 31.0078 78.3969 31.3781C77.9031 31.7484 77.5328 32.3656 77.4094 32.9828C77.2859 33.3531 77.2859 33.6 77.2859 33.7235V35.6984C77.2859 36.5625 77.5328 37.1797 78.0266 37.7969C78.5203 38.4141 79.2609 38.661 80.0016 38.661C80.9891 38.661 81.7297 38.2906 82.2234 37.55C82.8406 36.8094 83.0875 35.8219 83.0875 34.5875Z" fill="white"/>
<path d="M98.8875 34.5875C98.8875 36.5625 98.3937 38.0438 97.2828 39.2781C96.2953 40.2656 95.1843 40.7594 93.7031 40.7594C92.2218 40.7594 91.1109 40.2656 90.4937 39.1547V45.2031H87.9015V32.8594C87.9015 31.625 87.9015 30.3906 87.7781 29.0328H89.9999L90.1234 30.8844C90.9875 29.5266 92.2218 28.7859 93.95 28.7859C95.3078 28.7859 96.4187 29.2797 97.2828 30.3906C98.3937 31.3781 98.8875 32.736 98.8875 34.5875ZM96.2953 34.5875C96.2953 33.4766 96.0484 32.4891 95.5546 31.8719C95.0609 31.1313 94.3203 30.7609 93.3328 30.7609C92.7156 30.7609 92.0984 31.0078 91.6046 31.3781C91.1109 31.7484 90.7406 32.3656 90.6171 32.9828C90.4937 33.3531 90.4937 33.6 90.4937 33.7235V35.6984C90.4937 36.5625 90.7406 37.1797 91.2343 37.7969C91.7281 38.4141 92.4687 38.661 93.2093 38.661C94.1968 38.661 94.9374 38.2906 95.4312 37.55C96.0484 36.8094 96.2953 35.8219 96.2953 34.5875Z" fill="white"/>
<path d="M113.7 35.9449C113.7 37.3027 113.206 38.4137 112.342 39.2777C111.354 40.2652 109.873 40.6355 108.022 40.6355C106.294 40.6355 104.936 40.2652 103.948 39.648L104.565 37.5496C105.676 38.1668 106.911 38.5371 108.269 38.5371C109.256 38.5371 109.997 38.2902 110.49 37.9199C110.984 37.4262 111.231 36.9324 111.231 36.1918C111.231 35.5746 110.984 34.9574 110.614 34.5871C110.12 34.0934 109.379 33.723 108.392 33.3527C105.553 32.3652 104.195 30.7605 104.195 28.7855C104.195 27.4277 104.689 26.4402 105.676 25.5762C106.664 24.7121 107.898 24.3418 109.626 24.3418C111.108 24.3418 112.219 24.5887 113.206 25.0824L112.589 27.1809C111.725 26.6871 110.737 26.4402 109.503 26.4402C108.639 26.4402 107.898 26.6871 107.404 27.0574C107.034 27.4277 106.787 27.9215 106.787 28.5387C106.787 29.1559 107.034 29.6496 107.528 30.1434C107.898 30.5137 108.762 30.884 109.873 31.3777C111.231 31.8715 112.219 32.6121 112.959 33.3527C113.329 33.9699 113.7 34.834 113.7 35.9449Z" fill="white"/>
<path d="M122.094 30.8844H119.255V36.4391C119.255 37.7969 119.748 38.5375 120.736 38.5375C121.23 38.5375 121.6 38.5375 121.847 38.4141L121.97 40.3891C121.477 40.6359 120.859 40.6359 119.995 40.6359C119.008 40.6359 118.144 40.3891 117.65 39.7719C117.033 39.1547 116.786 38.1672 116.786 36.6859V30.8844H115.058V28.9094H116.786V26.8109L119.255 26.0703V28.9094H122.094V30.8844Z" fill="white"/>
<path d="M134.808 34.5871C134.808 36.3152 134.314 37.7965 133.327 38.9074C132.216 40.0184 130.858 40.6355 129.13 40.6355C127.402 40.6355 126.044 40.0184 125.056 38.9074C124.069 37.7965 123.575 36.4387 123.575 34.7105C123.575 32.9824 124.069 31.5012 125.18 30.3902C126.167 29.2793 127.649 28.6621 129.377 28.6621C131.105 28.6621 132.463 29.2793 133.45 30.3902C134.314 31.5012 134.808 32.859 134.808 34.5871ZM132.092 34.7105C132.092 33.5996 131.846 32.7355 131.352 31.9949C130.858 31.1309 129.994 30.6371 129.006 30.6371C128.019 30.6371 127.155 31.1309 126.661 31.9949C126.167 32.7355 125.921 33.723 125.921 34.7105C125.921 35.8215 126.167 36.6855 126.661 37.4262C127.155 38.2902 128.019 38.784 129.006 38.784C129.994 38.784 130.735 38.2902 131.352 37.4262C131.846 36.6855 132.092 35.698 132.092 34.7105Z" fill="white"/>
<path d="M143.078 31.1312C142.832 31.1312 142.585 31.0078 142.214 31.0078C141.35 31.0078 140.61 31.3781 140.116 31.9953C139.746 32.6125 139.499 33.3531 139.499 34.2172V40.2656H136.907V32.3656C136.907 31.0078 136.907 29.8969 136.783 28.7859H139.005L139.129 31.0078H139.252C139.499 30.2672 139.993 29.65 140.486 29.1562C141.104 28.7859 141.721 28.5391 142.338 28.5391C142.585 28.5391 142.832 28.5391 142.955 28.5391V31.1312H143.078Z" fill="white"/>
<path d="M154.435 34.0934C154.435 34.5871 154.435 34.9574 154.311 35.2043H146.658C146.658 36.3152 147.029 37.1793 147.769 37.7965C148.386 38.2902 149.25 38.6605 150.238 38.6605C151.349 38.6605 152.46 38.5371 153.324 38.1668L153.694 39.8949C152.583 40.3887 151.349 40.6355 149.868 40.6355C148.139 40.6355 146.658 40.1418 145.671 39.0309C144.683 38.0434 144.189 36.5621 144.189 34.834C144.189 33.1059 144.683 31.6246 145.547 30.5137C146.535 29.2793 147.893 28.6621 149.621 28.6621C151.225 28.6621 152.583 29.2793 153.324 30.5137C154.188 31.5012 154.435 32.7355 154.435 34.0934ZM152.089 33.4762C152.089 32.7355 151.966 32.1184 151.596 31.5012C151.102 30.7606 150.485 30.3902 149.621 30.3902C148.757 30.3902 148.139 30.7605 147.646 31.3777C147.275 31.8715 147.029 32.6121 146.905 33.3527H152.089V33.4762Z" fill="white"/>
<path d="M67.0406 14.7141C67.0406 16.0719 66.6703 17.1828 65.8062 17.9234C65.0656 18.5406 63.9546 18.9109 62.4734 18.9109C61.7328 18.9109 61.1156 18.9109 60.6218 18.7875V11.1344C61.239 11.0109 61.9796 11.0109 62.8437 11.0109C64.2015 11.0109 65.189 11.2578 65.9296 11.875C66.5468 12.4922 67.0406 13.4797 67.0406 14.7141ZM65.6828 14.7141C65.6828 13.85 65.4359 13.1094 64.9421 12.6156C64.4484 12.1219 63.7078 11.875 62.8437 11.875C62.4734 11.875 62.1031 11.875 61.8562 11.9984V17.8C61.9796 17.8 62.3499 17.8 62.7203 17.8C63.7078 17.8 64.4484 17.5531 64.9421 17.0594C65.4359 16.5656 65.6828 15.7016 65.6828 14.7141Z" fill="white"/>
<path d="M73.9531 15.9488C73.9531 16.8129 73.7063 17.5535 73.2125 18.0473C72.7188 18.6645 71.9781 18.9113 71.1141 18.9113C70.25 18.9113 69.6328 18.6645 69.1391 18.0473C68.6453 17.5535 68.3984 16.8129 68.3984 15.9488C68.3984 15.0848 68.6453 14.3441 69.1391 13.8504C69.6328 13.2332 70.3734 12.9863 71.2375 12.9863C72.1016 12.9863 72.7188 13.2332 73.2125 13.8504C73.7063 14.3441 73.9531 15.0848 73.9531 15.9488ZM72.7188 15.9488C72.7188 15.4551 72.5953 14.9613 72.3484 14.591C72.1016 14.0973 71.7313 13.9738 71.2375 13.9738C70.7438 13.9738 70.3734 14.2207 70.1266 14.591C69.8797 14.9613 69.7563 15.4551 69.7563 15.9488C69.7563 16.4426 69.8797 16.9363 70.1266 17.3066C70.3734 17.8004 70.7438 17.9238 71.2375 17.9238C71.7313 17.9238 72.1016 17.677 72.3484 17.1832C72.5953 16.9363 72.7188 16.4426 72.7188 15.9488Z" fill="white"/>
<path d="M83.4578 13.1094L81.7297 18.7875H80.6187L79.8781 16.3188C79.6312 15.7016 79.5078 15.0844 79.3844 14.4672C79.2609 15.0844 79.1375 15.7016 78.8906 16.3188L78.15 18.7875H77.0391L75.1875 13.1094H76.4219L77.0391 15.825C77.1625 16.4422 77.2859 17.0594 77.4094 17.6766C77.5328 17.1828 77.6563 16.5656 77.9031 15.825L78.6438 13.1094H79.6313L80.3719 15.7016C80.6188 16.3188 80.7422 16.9359 80.8656 17.5531C80.9891 16.9359 81.1125 16.3188 81.2359 15.7016L81.9766 13.1094H83.4578Z" fill="white"/>
<path d="M89.8766 18.7875H88.6422V15.5781C88.6422 14.5906 88.2719 14.0969 87.5312 14.0969C87.1609 14.0969 86.9141 14.2203 86.6672 14.4672C86.4203 14.714 86.2969 15.0844 86.2969 15.4547V18.7875H85.0625V14.714C85.0625 14.2203 85.0625 13.7265 85.0625 13.1094H86.1734V13.9734C86.2969 13.7266 86.5437 13.4797 86.7906 13.2328C87.1609 12.9859 87.5312 12.8625 87.9016 12.8625C88.3953 12.8625 88.8891 12.9859 89.2594 13.3562C89.7531 13.7266 89.8766 14.3437 89.8766 15.2078V18.7875Z" fill="white"/>
<path d="M93.333 18.7879H92.0986V10.5176H93.333V18.7879Z" fill="white"/>
<path d="M100.739 15.9488C100.739 16.8129 100.492 17.5535 99.9986 18.0473C99.5049 18.6645 98.7643 18.9113 97.9002 18.9113C97.0361 18.9113 96.4189 18.6645 95.9252 18.0473C95.4314 17.5535 95.1846 16.8129 95.1846 15.9488C95.1846 15.0848 95.4314 14.3441 95.9252 13.8504C96.4189 13.3566 97.1596 12.9863 98.0236 12.9863C98.8877 12.9863 99.5049 13.2332 99.9986 13.8504C100.492 14.3441 100.739 15.0848 100.739 15.9488ZM99.5049 15.9488C99.5049 15.4551 99.3814 14.9613 99.1346 14.591C98.8877 14.0973 98.5174 13.9738 98.0236 13.9738C97.5299 13.9738 97.1596 14.2207 96.9127 14.591C96.6658 14.9613 96.5424 15.4551 96.5424 15.9488C96.5424 16.4426 96.6658 16.9363 96.9127 17.3066C97.1596 17.8004 97.5299 17.9238 98.0236 17.9238C98.5174 17.9238 98.8877 17.677 99.1346 17.1832C99.3814 16.9363 99.5049 16.4426 99.5049 15.9488Z" fill="white"/>
<path d="M106.788 18.7879H105.677L105.554 18.1707C105.183 18.6645 104.566 18.9113 103.949 18.9113C103.455 18.9113 102.961 18.7879 102.714 18.4176C102.468 18.0473 102.221 17.677 102.221 17.3066C102.221 16.566 102.468 16.0723 103.085 15.702C103.702 15.3316 104.443 15.2082 105.554 15.2082V15.0848C105.554 14.3441 105.183 13.9738 104.443 13.9738C103.825 13.9738 103.455 14.0973 102.961 14.3441L102.714 13.4801C103.208 13.1098 103.825 12.9863 104.689 12.9863C106.171 12.9863 106.911 13.727 106.911 15.3316V17.4301C106.788 18.0473 106.788 18.4176 106.788 18.7879ZM105.554 16.8129V15.9488C104.196 15.9488 103.455 16.3191 103.455 17.0598C103.455 17.3066 103.579 17.5535 103.702 17.677C103.825 17.8004 104.072 17.9238 104.319 17.9238C104.566 17.9238 104.813 17.8004 105.06 17.677C105.307 17.5535 105.43 17.3066 105.554 17.0598C105.554 17.0598 105.554 16.9363 105.554 16.8129Z" fill="white"/>
<path d="M113.946 18.7875H112.836V17.9234C112.465 18.6641 111.848 18.9109 110.984 18.9109C110.243 18.9109 109.75 18.6641 109.256 18.1703C108.762 17.6766 108.639 16.9359 108.639 16.0719C108.639 15.2078 108.886 14.4672 109.379 13.85C109.873 13.3563 110.49 13.1094 111.107 13.1094C111.848 13.1094 112.342 13.3563 112.712 13.85V10.6406H113.946V17.3063C113.946 17.8 113.946 18.2938 113.946 18.7875ZM112.712 16.4422V15.4547C112.712 15.3313 112.712 15.2078 112.712 15.0844C112.589 14.8375 112.465 14.5906 112.218 14.3438C111.971 14.0969 111.725 14.0969 111.354 14.0969C110.861 14.0969 110.49 14.3438 110.243 14.7141C109.996 15.0844 109.873 15.5781 109.873 16.1953C109.873 16.8125 109.996 17.1828 110.243 17.5531C110.49 17.9234 110.861 18.1703 111.354 18.1703C111.725 18.1703 112.095 18.0469 112.342 17.6766C112.589 17.1828 112.712 16.8125 112.712 16.4422Z" fill="white"/>
<path d="M124.686 15.9488C124.686 16.8129 124.439 17.5535 123.945 18.0473C123.451 18.6645 122.711 18.9113 121.846 18.9113C120.982 18.9113 120.365 18.6645 119.871 18.0473C119.378 17.5535 119.131 16.8129 119.131 15.9488C119.131 15.0848 119.378 14.3441 119.871 13.8504C120.365 13.2332 121.106 12.9863 121.97 12.9863C122.834 12.9863 123.451 13.2332 123.945 13.8504C124.439 14.3441 124.686 15.0848 124.686 15.9488ZM123.328 15.9488C123.328 15.4551 123.204 14.9613 122.957 14.591C122.711 14.0973 122.34 13.9738 121.846 13.9738C121.353 13.9738 120.982 14.2207 120.736 14.591C120.489 14.9613 120.365 15.4551 120.365 15.9488C120.365 16.4426 120.489 16.9363 120.736 17.3066C120.982 17.8004 121.353 17.9238 121.846 17.9238C122.34 17.9238 122.711 17.677 122.957 17.1832C123.204 16.9363 123.328 16.4426 123.328 15.9488Z" fill="white"/>
<path d="M131.475 18.7875H130.241V15.5781C130.241 14.5906 129.87 14.0969 129.13 14.0969C128.759 14.0969 128.512 14.2203 128.266 14.4672C128.019 14.714 127.895 15.0844 127.895 15.4547V18.7875H126.661V14.714C126.661 14.2203 126.661 13.7265 126.661 13.1094H127.772V13.9734C127.895 13.7266 128.142 13.4797 128.389 13.2328C128.759 12.9859 129.13 12.8625 129.5 12.8625C129.994 12.8625 130.487 12.9859 130.858 13.3562C131.352 13.7266 131.475 14.3437 131.475 15.2078V18.7875Z" fill="white"/>
<path d="M139.869 14.0973H138.511V16.8129C138.511 17.5535 138.758 17.8004 139.252 17.8004C139.499 17.8004 139.622 17.8004 139.869 17.8004V18.7879C139.622 18.9113 139.252 18.9113 138.881 18.9113C138.388 18.9113 138.017 18.7879 137.771 18.4176C137.524 18.1707 137.4 17.5535 137.4 16.9363V14.0973H136.536V13.1098H137.4V12.1223L138.635 11.752V13.1098H139.992V14.0973H139.869Z" fill="white"/>
<path d="M146.535 18.7879H145.3V15.5785C145.3 14.591 144.93 14.0973 144.189 14.0973C143.572 14.0973 143.202 14.3441 142.955 14.9613C142.955 15.0848 142.955 15.2082 142.955 15.4551V18.7879H141.721V10.5176H142.955V13.9738C143.325 13.3566 143.943 12.9863 144.683 12.9863C145.177 12.9863 145.671 13.1098 145.918 13.4801C146.288 13.8504 146.535 14.591 146.535 15.3316V18.7879Z" fill="white"/>
<path d="M153.323 15.7016C153.323 15.9484 153.323 16.0719 153.323 16.3188H149.62C149.62 16.9359 149.867 17.3063 150.114 17.5531C150.484 17.8 150.855 17.9234 151.348 17.9234C151.966 17.9234 152.459 17.8 152.83 17.6766L153.077 18.5406C152.583 18.7875 151.966 18.9109 151.225 18.9109C150.361 18.9109 149.62 18.6641 149.127 18.1703C148.633 17.6766 148.386 16.9359 148.386 16.0719C148.386 15.2078 148.633 14.4672 149.127 13.9734C149.62 13.3563 150.238 13.1094 151.102 13.1094C151.966 13.1094 152.583 13.3563 152.953 13.9734C153.2 14.3438 153.323 14.9609 153.323 15.7016ZM152.213 15.3313C152.213 14.9609 152.089 14.5906 151.966 14.3438C151.719 13.9734 151.472 13.85 150.978 13.85C150.608 13.85 150.238 13.9734 149.991 14.3438C149.744 14.5906 149.62 14.9609 149.62 15.3313H152.213Z" fill="white"/>
<defs>
<filter id="filter0_d_56_15020" x="0.900049" y="0.799988" width="178.2" height="72.675" filterUnits="userSpaceOnUse" color-interpolation-filters="sRGB">
<feFlood flood-opacity="0" result="BackgroundImageFix"/>
<feColorMatrix in="SourceAlpha" type="matrix" values="0 0 0 0 0 0 0 0 0 0 0 0 0 0 0 0 0 0 127 0" result="hardAlpha"/>
<feOffset dy="12"/>
<feGaussianBlur stdDeviation="4.45"/>
<feComposite in2="hardAlpha" operator="out"/>
<feColorMatrix type="matrix" values="0 0 0 0 0 0 0 0 0 0 0 0 0 0 0 0 0 0 0.13 0"/>
<feBlend mode="normal" in2="BackgroundImageFix" result="effect1_dropShadow_56_15020"/>
<feBlend mode="normal" in="SourceGraphic" in2="effect1_dropShadow_56_15020" result="shape"/>
</filter>
</defs>
</svg>
