<svg width="180" height="74" viewBox="0 0 180 74" fill="none" xmlns="http://www.w3.org/2000/svg">
<g filter="url(#filter0_d_56_14989)">
<path d="M164.062 51.375H15.9375C13.2219 51.375 11 49.1531 11 46.4375V6.9375C11 4.22187 13.2219 2 15.9375 2H164.062C166.778 2 169 4.22187 169 6.9375V46.4375C169 49.1531 166.778 51.375 164.062 51.375Z" fill="black"/>
<path d="M15.9375 51.975H164.062C167.109 51.975 169.6 49.4845 169.6 46.4375V6.9375C169.6 3.8905 167.109 1.4 164.062 1.4H15.9375C12.8905 1.4 10.4 3.8905 10.4 6.9375V46.4375C10.4 49.4845 12.8905 51.975 15.9375 51.975Z" stroke="white" stroke-width="1.2"/>
</g>
<path fill-rule="evenodd" clip-rule="evenodd" d="M23.0969 26.1937V13.2328C23.0969 12.4922 23.7141 11.875 24.3313 11.875C24.9485 11.875 25.1954 11.9984 25.5657 12.2453L49.3891 25.3297C49.8829 25.5766 50.1297 25.9469 50.1297 26.3172C50.1297 26.6875 49.8829 27.0578 49.3891 27.3047L25.5657 40.3891C25.3188 40.5125 24.9485 40.7594 24.3313 40.7594C23.7141 40.7594 23.0969 40.1422 23.0969 39.4016V26.1937Z" fill="url(#paint0_linear_56_14989)"/>
<path fill-rule="evenodd" clip-rule="evenodd" d="M38.5262 26.3172L24.084 11.875C24.2074 11.875 24.2074 11.875 24.3309 11.875C24.948 11.875 25.1949 11.9984 25.5652 12.2453L43.0934 21.8734L38.5262 26.3172Z" fill="url(#paint1_linear_56_14989)"/>
<path fill-rule="evenodd" clip-rule="evenodd" d="M42.9701 30.6379L38.5264 26.1941L43.0936 21.627L49.3889 25.0832C49.8826 25.3301 50.1295 25.7004 50.1295 26.0707C50.1295 26.441 49.8826 26.8113 49.3889 27.0582L42.9701 30.6379Z" fill="url(#paint2_linear_56_14989)"/>
<path fill-rule="evenodd" clip-rule="evenodd" d="M24.208 40.5121L38.5268 26.1934L42.9705 30.6371L25.5658 40.1418C25.1955 40.3887 24.9486 40.5121 24.208 40.5121C24.3314 40.5121 24.3314 40.5121 24.208 40.5121Z" fill="url(#paint3_linear_56_14989)"/>
<path fill-rule="evenodd" clip-rule="evenodd" d="M98.7636 43.8453C98.1464 43.3516 97.6527 42.4875 97.4058 41.9938L99.3808 41.1297C99.5043 41.3766 99.7511 41.7469 99.998 42.1172C100.492 42.6109 101.232 43.1047 101.973 43.1047C102.714 43.1047 103.578 42.7344 104.071 42.1172C104.442 41.5 104.689 40.8828 104.689 40.0187V39.2781C103.207 41.1297 100.121 40.8828 98.3933 38.9078C96.5417 36.9328 96.5417 33.6 98.3933 31.625C100.245 29.7734 102.96 29.5266 104.565 31.2547V30.3906H106.664V39.6484C106.664 41.9937 105.8 43.3516 104.689 44.2156C103.948 44.8328 102.837 45.0797 101.85 45.0797C100.739 44.9563 99.6277 44.5859 98.7636 43.8453ZM150.484 44.3391L152.582 39.4016L148.879 30.8844H150.978L153.57 36.9328L156.162 30.8844H158.26L152.582 44.3391H150.484ZM140.485 39.6484C139.868 39.0312 139.621 38.1672 139.621 37.3031C139.621 36.5625 139.868 35.8219 140.362 35.3281C141.226 34.4641 142.46 34.0938 143.818 34.0938C144.682 34.0938 145.423 34.2172 146.04 34.5875C146.04 33.1063 144.806 32.4891 143.818 32.4891C142.954 32.4891 142.09 32.9828 141.72 33.8469L139.868 33.1063C140.239 32.2422 141.226 30.6375 143.695 30.6375C144.929 30.6375 146.164 31.0078 146.904 31.8719C147.645 32.7359 147.892 33.7234 147.892 35.0812V40.2656H145.793V39.4016C145.546 39.7719 145.053 40.0188 144.682 40.2656C144.189 40.5125 143.571 40.6359 142.954 40.6359C142.214 40.5125 141.103 40.2656 140.485 39.6484ZM74.6933 35.2047C74.6933 32.7359 76.5449 30.0203 79.8777 30.0203C83.0871 30.0203 85.0621 32.7359 85.0621 35.2047C85.0621 37.6734 83.2105 40.3891 79.8777 40.3891C76.5449 40.3891 74.6933 37.6734 74.6933 35.2047ZM85.8027 35.2047C85.8027 32.7359 87.6542 30.0203 90.9871 30.0203C94.1964 30.0203 96.1714 32.7359 96.1714 35.2047C96.1714 37.6734 94.3199 40.3891 90.9871 40.3891C87.7777 40.3891 85.8027 37.6734 85.8027 35.2047ZM60.7449 37.9203C57.6589 34.8344 57.7824 29.7734 60.8683 26.5641C62.473 24.9594 64.448 24.2188 66.5464 24.2188C68.5214 24.2188 70.4964 24.9594 71.9777 26.4406L70.4964 28.0453C68.2746 25.8234 64.6949 25.9469 62.5964 28.1688C60.3746 30.5141 60.3746 34.0938 62.5964 36.4391C64.8183 38.7844 68.5214 38.9078 70.7433 36.5625C71.4839 35.8219 71.7308 34.8344 71.8542 33.8469H66.6699V31.625H73.9527C74.0761 32.1188 74.0761 32.7359 74.0761 33.3531C74.0761 35.2047 73.3355 37.0563 72.1011 38.2906C70.7433 39.6484 68.7683 40.3891 66.7933 40.3891C64.5714 40.2656 62.3496 39.525 60.7449 37.9203ZM112.959 38.7844C111.107 36.8094 111.107 33.4766 112.959 31.3781C114.811 29.4031 117.896 29.4031 119.625 31.3781C120.242 31.9953 120.612 32.8594 120.982 33.7234L114.193 36.5625C114.564 37.4266 115.428 38.1672 116.662 38.1672C117.773 38.1672 118.514 37.7969 119.254 36.6859L121.106 37.9203C120.859 38.1672 120.612 38.4141 120.489 38.6609C118.39 40.7594 114.811 40.7594 112.959 38.7844ZM125.796 40.2656V26.5641H130.24C132.832 26.5641 134.931 28.4156 134.931 30.6375C134.931 32.8594 133.079 34.7109 130.734 34.7109H128.018V40.1422H125.796V40.2656ZM136.165 40.2656V26.5641H138.264V40.2656H136.165ZM108.268 40.0187V24.7125H110.49V40.0187H108.268ZM145.917 36.1922C145.423 35.8219 144.682 35.6984 143.942 35.6984C142.461 35.6984 141.596 36.4391 141.596 37.3031C141.596 38.1672 142.461 38.6609 143.325 38.6609C144.559 38.6609 145.917 37.6734 145.917 36.1922ZM82.7168 35.2047C82.7168 33.7234 81.7292 32.1188 79.8777 32.1188C78.0261 32.1188 77.0386 33.7234 77.0386 35.2047C77.0386 36.6859 78.0261 38.2906 79.8777 38.2906C81.6058 38.2906 82.7168 36.6859 82.7168 35.2047ZM93.8261 35.2047C93.8261 33.7234 92.8386 32.1188 90.9871 32.1188C89.1355 32.1188 88.148 33.7234 88.148 35.2047C88.148 36.6859 89.1355 38.2906 90.9871 38.2906C92.8386 38.2906 93.8261 36.6859 93.8261 35.2047ZM104.812 36.0687C104.812 35.9453 104.812 35.8219 104.936 35.6984C104.936 35.575 104.936 35.3281 104.936 35.2047C104.936 35.0813 104.936 34.8344 104.936 34.7109V34.5875C104.936 34.4641 104.812 34.2172 104.812 34.0938C104.442 32.8594 103.331 31.9953 102.22 31.9953C100.739 31.9953 99.5043 33.4766 99.5043 35.0812C99.5043 36.8094 100.739 38.1672 102.343 38.1672C103.331 38.2906 104.318 37.4266 104.812 36.0687ZM113.823 34.9578L118.39 32.9828C117.896 32.1187 117.156 31.8719 116.539 31.8719C114.687 31.9953 113.576 33.9703 113.823 34.9578ZM132.709 30.7609C132.709 29.5266 131.721 28.6625 130.364 28.6625H127.895V32.9828H130.487C131.721 32.9828 132.709 31.9953 132.709 30.7609Z" fill="white"/>
<path fill-rule="evenodd" clip-rule="evenodd" d="M152.09 41.8711H151.966V41.7469H152.09H151.966V41.8711H152.09Z" fill="white"/>
<path fill-rule="evenodd" clip-rule="evenodd" d="M152.337 41.8711C152.337 41.7469 152.337 41.7469 152.337 41.8711C152.212 41.7469 152.212 41.7469 152.337 41.8711C152.212 41.8711 152.212 41.8711 152.337 41.8711ZM152.337 41.7469C152.337 41.8711 152.337 41.8711 152.337 41.7469C152.212 41.8711 152.337 41.8711 152.337 41.7469C152.337 41.7469 152.212 41.7469 152.337 41.7469Z" fill="white"/>
<path fill-rule="evenodd" clip-rule="evenodd" d="M152.46 41.7469H152.336H152.46V41.8711V41.7469Z" fill="white"/>
<path d="M59.0176 14.4674C59.0176 12.2455 60.6223 10.8877 62.5973 10.8877C63.9551 10.8877 64.8192 11.5049 65.4363 12.3689L64.4488 12.9861C64.0785 12.4924 63.4613 12.1221 62.5973 12.1221C61.2395 12.1221 60.252 13.1096 60.252 14.5908C60.252 16.0721 61.2395 17.0596 62.5973 17.0596C63.3379 17.0596 63.9551 16.6893 64.202 16.4424V15.3314H62.227V14.2205H65.5598V16.8127C64.9426 17.5533 63.9551 18.0471 62.7207 18.0471C60.6223 18.0471 59.0176 16.5658 59.0176 14.4674Z" fill="white"/>
<path d="M67.041 17.9232V11.0107H71.7316V12.1217H68.152V13.8498H71.6082V14.9607H68.152V16.9357H71.7316V18.0467L67.041 17.9232Z" fill="white"/>
<path d="M75.1875 17.9234V12.1219H73.0891V11.0109H78.5204V12.1219H76.4219V17.9234H75.1875Z" fill="white"/>
<path d="M82.7168 17.9232V11.0107H83.9512V17.9232H82.7168Z" fill="white"/>
<path d="M87.284 17.9232V12.1217H85.1855V11.0107H90.6168V12.1217H88.5184V17.9232H87.284Z" fill="white"/>
<path d="M94.5671 14.4672C94.5671 12.3688 96.0484 10.8875 98.1468 10.8875C100.245 10.8875 101.727 12.3688 101.727 14.4672C101.727 16.5656 100.245 18.0469 98.1468 18.0469C96.0484 18.0469 94.5671 16.4422 94.5671 14.4672ZM100.369 14.4672C100.369 12.9859 99.5046 11.9984 98.0234 11.9984C96.6656 11.9984 95.6781 13.1094 95.6781 14.4672C95.6781 15.9484 96.5421 16.9359 98.0234 16.9359C99.5046 16.9359 100.369 15.825 100.369 14.4672Z" fill="white"/>
<path d="M107.898 17.9232L104.318 12.9857V17.9232H103.084V11.0107H104.318L107.898 15.8248V11.0107H109.132V17.9232H107.898Z" fill="white"/>
<defs>
<filter id="filter0_d_56_14989" x="0.900049" y="0.799988" width="178.2" height="72.675" filterUnits="userSpaceOnUse" color-interpolation-filters="sRGB">
<feFlood flood-opacity="0" result="BackgroundImageFix"/>
<feColorMatrix in="SourceAlpha" type="matrix" values="0 0 0 0 0 0 0 0 0 0 0 0 0 0 0 0 0 0 127 0" result="hardAlpha"/>
<feOffset dy="12"/>
<feGaussianBlur stdDeviation="4.45"/>
<feComposite in2="hardAlpha" operator="out"/>
<feColorMatrix type="matrix" values="0 0 0 0 0 0 0 0 0 0 0 0 0 0 0 0 0 0 0.13 0"/>
<feBlend mode="normal" in2="BackgroundImageFix" result="effect1_dropShadow_56_14989"/>
<feBlend mode="normal" in="SourceGraphic" in2="effect1_dropShadow_56_14989" result="shape"/>
</filter>
<linearGradient id="paint0_linear_56_14989" x1="31.0801" y1="10.1143" x2="37.9904" y2="38.4937" gradientUnits="userSpaceOnUse">
<stop stop-color="#006884"/>
<stop offset="1" stop-color="#8AD1D0"/>
</linearGradient>
<linearGradient id="paint1_linear_56_14989" x1="22.653" y1="14.1509" x2="41.4846" y2="24.3314" gradientUnits="userSpaceOnUse">
<stop stop-color="#24BBB6"/>
<stop offset="1" stop-color="#DBE692"/>
</linearGradient>
<linearGradient id="paint2_linear_56_14989" x1="44.321" y1="31.1565" x2="44.321" y2="21.3451" gradientUnits="userSpaceOnUse">
<stop stop-color="#FCC072"/>
<stop offset="1" stop-color="#F58A5B"/>
</linearGradient>
<linearGradient id="paint3_linear_56_14989" x1="26.2999" y1="43.0662" x2="41.1762" y2="27.9263" gradientUnits="userSpaceOnUse">
<stop stop-color="#712B8F"/>
<stop offset="1" stop-color="#EA1D27"/>
</linearGradient>
</defs>
</svg>
