<svg width="32" height="32" viewBox="0 0 32 32" fill="none" xmlns="http://www.w3.org/2000/svg">
<path d="M15.6539 31.2766C24.2907 31.2766 31.2922 24.2751 31.2922 15.6383C31.2922 7.0015 24.2907 0 15.6539 0C7.01713 0 0.015625 7.0015 0.015625 15.6383C0.015625 24.2751 7.01713 31.2766 15.6539 31.2766Z" fill="url(#paint0_linear_139_591)"/>
<path d="M18.972 6.94995H12.3344C9.37357 6.94995 6.96875 9.35477 6.96875 12.3156V18.9532C6.96875 21.9141 9.37357 24.3189 12.3344 24.3189H18.972C21.9329 24.3189 24.3377 21.9141 24.3377 18.9532V12.3156C24.3377 9.35477 21.9329 6.94995 18.972 6.94995ZM22.3985 18.9602C22.3985 20.8507 20.8625 22.3936 18.9651 22.3936H12.3275C10.437 22.3936 8.894 20.8576 8.894 18.9602V12.3226C8.894 10.4321 10.43 8.8891 12.3275 8.8891H18.9651C20.8556 8.8891 22.3985 10.4251 22.3985 12.3226V18.9602Z" fill="white"/>
<path d="M15.6444 11.1964C13.1979 11.1964 11.2031 13.1912 11.2031 15.6377C11.2031 18.0842 13.1979 20.079 15.6444 20.079C18.0909 20.079 20.0857 18.0842 20.0857 15.6377C20.0857 13.1912 18.0909 11.1964 15.6444 11.1964ZM15.6444 18.3344C14.157 18.3344 12.9477 17.1251 12.9477 15.6377C12.9477 14.1503 14.157 12.9409 15.6444 12.9409C17.1318 12.9409 18.3411 14.1503 18.3411 15.6377C18.3411 17.1251 17.1318 18.3344 15.6444 18.3344Z" fill="white"/>
<path d="M20.4264 11.6834C20.8356 11.6171 21.1135 11.2316 21.0472 10.8225C20.9808 10.4133 20.5954 10.1353 20.1862 10.2017C19.777 10.268 19.4991 10.6535 19.5654 11.0627C19.6317 11.4718 20.0172 11.7498 20.4264 11.6834Z" fill="white"/>
<defs>
<linearGradient id="paint0_linear_139_591" x1="3.74651" y1="27.5457" x2="25.9703" y2="5.32196" gradientUnits="userSpaceOnUse">
<stop stop-color="#FEE411"/>
<stop offset="0.0518459" stop-color="#FEDB16"/>
<stop offset="0.1381" stop-color="#FEC125"/>
<stop offset="0.2481" stop-color="#FE983D"/>
<stop offset="0.3762" stop-color="#FE5F5E"/>
<stop offset="0.5" stop-color="#FE2181"/>
<stop offset="1" stop-color="#9000DC"/>
</linearGradient>
</defs>
</svg>
