<svg width="21" height="22" viewBox="0 0 21 22" fill="none" xmlns="http://www.w3.org/2000/svg">
<path d="M18.3477 15.0034C18.0632 14.8367 17.7059 14.9476 17.5497 15.251C17.3934 15.5545 17.4973 15.9356 17.7818 16.1023C18.4818 16.5126 18.8833 16.9674 18.8833 17.3502C18.8833 17.8183 18.2616 18.5439 16.5165 19.1763C14.7925 19.8013 12.4886 20.1454 10.0293 20.1454C7.56998 20.1454 5.26609 19.8013 3.54211 19.1763C1.79705 18.5439 1.17531 17.8183 1.17531 17.3502C1.17531 16.9674 1.5768 16.5126 2.27681 16.1023C2.56127 15.9356 2.66517 15.5544 2.50889 15.2509C2.35262 14.9475 1.99544 14.8366 1.7109 15.0034C0.930414 15.4608 0 16.2393 0 17.3502C0 18.2017 0.548948 19.4157 3.16401 20.3636C5.00659 21.0314 7.44473 21.3992 10.0293 21.3992C12.6139 21.3992 15.052 21.0314 16.8946 20.3636C19.5097 19.4157 20.0586 18.2017 20.0586 17.3502C20.0586 16.2393 19.1282 15.4608 18.3477 15.0034Z" fill="#D19B6F"/>
<path d="M5.59205 18.2703C6.78499 18.6298 8.36065 18.8279 10.0288 18.8279C11.6969 18.8279 13.2725 18.6299 14.4655 18.2703C15.9249 17.8305 16.665 17.1938 16.665 16.3781C16.665 15.5623 15.9249 14.9256 14.4655 14.4858C14.1415 14.3882 13.7891 14.3026 13.4145 14.2295C13.2111 14.6045 12.9979 14.9905 12.775 15.3876C13.1897 15.4539 13.579 15.5353 13.9325 15.6314C15.0066 15.9232 15.399 16.2518 15.4797 16.3781C15.399 16.5044 15.0066 16.833 13.9326 17.1248C12.916 17.401 11.608 17.5586 10.2304 17.5727C10.1637 17.5779 10.0965 17.5809 10.0288 17.5809C9.96103 17.5809 9.89384 17.5779 9.82709 17.5727C8.44951 17.5586 7.14154 17.4011 6.12494 17.1248C5.05086 16.833 4.6585 16.5044 4.57784 16.3781C4.6585 16.2518 5.0509 15.9232 6.12498 15.6314C6.47851 15.5353 6.86781 15.4539 7.2825 15.3876C7.05962 14.9905 6.84646 14.6044 6.64302 14.2295C6.2684 14.3026 5.91601 14.3882 5.59205 14.4858C4.13259 14.9256 3.39258 15.5623 3.39258 16.3781C3.39258 17.1938 4.13259 17.8305 5.59205 18.2703Z" fill="#D19B6F"/>
<path d="M10.0292 16.3266C10.5524 16.3266 11.0276 16.0422 11.3005 15.5659C13.2127 12.2282 15.4921 7.82948 15.4921 5.82787C15.4921 2.61437 13.0415 0 10.0292 0C7.01701 0 4.56641 2.61437 4.56641 5.82787C4.56641 7.82948 6.84584 12.2282 8.75803 15.5659C9.03094 16.0422 9.50616 16.3266 10.0292 16.3266ZM7.83349 5.42772C7.83349 4.13613 8.81852 3.08531 10.0292 3.08531C11.24 3.08531 12.225 4.13613 12.225 5.42772C12.225 6.71936 11.24 7.77017 10.0292 7.77017C8.81852 7.77017 7.83349 6.7194 7.83349 5.42772Z" fill="white"/>
</svg>
