<svg width="51" height="51" viewBox="0 0 51 51" fill="none" xmlns="http://www.w3.org/2000/svg">
<circle cx="25.5" cy="25.5" r="25.5" fill="url(#paint0_linear_27_3121)"/>
<path d="M32.1202 21.2866H29.6851V13.6292C29.6851 12.7868 28.9959 12.0977 28.1536 12.0977H22.0276C21.1853 12.0977 20.4961 12.7868 20.4961 13.6292V21.2866H18.061C16.698 21.2866 16.0088 22.9407 16.9737 23.9055L24.0032 30.9351C24.6005 31.5324 25.5654 31.5324 26.1627 30.9351L33.1922 23.9055C34.1571 22.9407 33.4832 21.2866 32.1202 21.2866ZM14.3701 36.6016C14.3701 37.4439 15.0593 38.1331 15.9016 38.1331H34.2796C35.1219 38.1331 35.8111 37.4439 35.8111 36.6016C35.8111 35.7593 35.1219 35.0701 34.2796 35.0701H15.9016C15.0593 35.0701 14.3701 35.7593 14.3701 36.6016Z" fill="white"/>
<defs>
<linearGradient id="paint0_linear_27_3121" x1="51" y1="-8.42653e-08" x2="12.5737" y2="25.9602" gradientUnits="userSpaceOnUse">
<stop stop-color="#D19B6F"/>
<stop offset="1" stop-color="#D68F56"/>
</linearGradient>
</defs>
</svg>
