<svg width="19" height="19" viewBox="0 0 19 19" fill="none" xmlns="http://www.w3.org/2000/svg">
<path d="M17.4929 12.061C16.8632 11.5077 16.0995 11.0296 15.223 10.6401C14.8482 10.4737 14.4097 10.6424 14.2433 11.017C14.0769 11.3916 14.2457 11.8301 14.6202 11.9966C15.3594 12.3251 15.9963 12.7218 16.5131 13.176C17.1502 13.7358 17.5156 14.5464 17.5156 15.4004V16.7734C17.5156 17.1827 17.1827 17.5156 16.7734 17.5156H2.22656C1.81734 17.5156 1.48438 17.1827 1.48438 16.7734V15.4004C1.48438 14.5464 1.84982 13.7358 2.48691 13.176C3.23678 12.517 5.42159 10.9844 9.5 10.9844C12.5283 10.9844 14.9922 8.52052 14.9922 5.49219C14.9922 2.46386 12.5283 0 9.5 0C6.47167 0 4.00781 2.46386 4.00781 5.49219C4.00781 7.26257 4.85002 8.83971 6.15465 9.84471C3.76747 10.3695 2.28252 11.3795 1.50713 12.061C0.549393 12.9025 0 14.1195 0 15.4004V16.7734C0 18.0012 0.998764 19 2.22656 19H16.7734C18.0012 19 19 18.0012 19 16.7734V15.4004C19 14.1195 18.4506 12.9025 17.4929 12.061ZM5.49219 5.49219C5.49219 3.2823 7.29011 1.48438 9.5 1.48438C11.7099 1.48438 13.5078 3.2823 13.5078 5.49219C13.5078 7.70208 11.7099 9.5 9.5 9.5C7.29011 9.5 5.49219 7.70208 5.49219 5.49219Z" fill="#7A808A"/>
</svg>
