<svg width="20" height="20" viewBox="0 0 20 20" fill="none" xmlns="http://www.w3.org/2000/svg">
<path d="M10.5485 0.976521L10.5485 0.976498C10.2451 0.674509 9.75479 0.674487 9.45147 0.976513L9.45146 0.976522L7.20769 3.21094H3.98828C3.55898 3.21094 3.21094 3.55898 3.21094 3.98828V7.20769L0.976521 9.4515L0.976513 9.45151C0.674496 9.75482 0.674496 10.2452 0.976513 10.5485L0.976522 10.5485L3.21094 12.7923V16.0117C3.21094 16.441 3.55898 16.7891 3.98828 16.7891H7.20769L9.45146 19.0235L9.45149 19.0235C9.60311 19.1744 9.80195 19.25 10 19.25C10.198 19.25 10.3969 19.1744 10.5485 19.0235L12.7923 16.7891H16.0117C16.441 16.7891 16.7891 16.441 16.7891 16.0117V12.7923L19.0235 10.5485L18.8463 10.3721L19.0235 10.5485C19.3255 10.2452 19.3255 9.75482 19.0235 9.45151L18.8463 9.62791L19.0235 9.4515L16.7891 7.20769V3.98828C16.7891 3.55898 16.441 3.21094 16.0117 3.21094H12.7923L10.5485 0.976521ZM15.4609 11.9227L15.4609 11.9228C15.3159 12.0685 15.2344 12.2656 15.2344 12.4712V15.2344H12.4713C12.2657 15.2344 12.0685 15.3158 11.9228 15.4609L11.9228 15.4609L10 17.3756L8.07726 15.4609L8.07722 15.4609C7.93155 15.3159 7.73438 15.2344 7.52876 15.2344H4.76562V12.4713C4.76562 12.2657 4.68416 12.0685 4.53911 11.9228L4.5391 11.9228L2.62438 10L4.5391 8.07726L4.53914 8.07722C4.68414 7.93155 4.76562 7.73438 4.76562 7.52876V4.76562H7.52873C7.73432 4.76562 7.93155 4.68416 8.07722 4.53911L8.07723 4.5391L10 2.62438L11.9228 4.5391L11.9228 4.53914C12.0685 4.68414 12.2657 4.76562 12.4713 4.76562H15.2344V7.52873C15.2344 7.73432 15.3158 7.93155 15.4609 8.07722L15.4609 8.07723L17.3756 10L15.4609 11.9227Z" fill="#D19B6F" stroke="#D19B6F" stroke-width="0.5"/>
</svg>
