<svg width="67" height="67" viewBox="0 0 67 67" fill="none" xmlns="http://www.w3.org/2000/svg">
<path d="M33.4995 65.8834C51.3844 65.8834 65.8829 51.3849 65.8829 33.5C65.8829 15.6152 51.3844 1.1167 33.4995 1.1167C15.6147 1.1167 1.11621 15.6152 1.11621 33.5C1.11621 51.3849 15.6147 65.8834 33.4995 65.8834Z" fill="url(#paint0_linear_51_4918)"/>
<path d="M50.1603 21.9314C51.781 22.6752 53.0986 23.9509 53.8945 25.5466C54.6904 27.1423 54.9168 28.9622 54.5361 30.7043C54.1554 32.4464 53.1905 34.006 51.8015 35.1242C50.4125 36.2425 48.6829 36.8522 46.8997 36.8522C45.1165 36.8522 43.3869 36.2425 41.9979 35.1242C40.6088 34.006 39.6439 32.4464 39.2632 30.7043C38.8825 28.9622 39.1089 27.1423 39.9048 25.5466C40.7008 23.9509 42.0184 22.6752 43.639 21.9314H50.1603Z" fill="white"/>
<path d="M23.3605 21.9314C24.9812 22.6752 26.2988 23.9509 27.0947 25.5466C27.8906 27.1423 28.117 28.9622 27.7363 30.7043C27.3556 32.4464 26.3907 34.006 25.0017 35.1242C23.6127 36.2425 21.8831 36.8522 20.0999 36.8522C18.3167 36.8522 16.5871 36.2425 15.1981 35.1242C13.809 34.006 12.8441 32.4464 12.4634 30.7043C12.0827 28.9622 12.3091 27.1423 13.105 25.5466C13.901 23.9509 15.2186 22.6752 16.8392 21.9314H23.3605Z" fill="white"/>
<path d="M46.8998 32.3833C48.75 32.3833 50.2498 30.8835 50.2498 29.0333C50.2498 27.1832 48.75 25.6833 46.8998 25.6833C45.0497 25.6833 43.5498 27.1832 43.5498 29.0333C43.5498 30.8835 45.0497 32.3833 46.8998 32.3833Z" fill="#141435"/>
<path d="M20.1 32.3833C21.9502 32.3833 23.45 30.8835 23.45 29.0333C23.45 27.1832 21.9502 25.6833 20.1 25.6833C18.2498 25.6833 16.75 27.1832 16.75 29.0333C16.75 30.8835 18.2498 32.3833 20.1 32.3833Z" fill="#141435"/>
<path d="M46.8997 23.4499C41.6603 23.4499 39.4438 20.934 39.3511 20.8257C39.1586 20.6006 39.0634 20.3083 39.0864 20.013C39.1094 19.7177 39.2488 19.4437 39.4739 19.2512C39.699 19.0587 39.9913 18.9635 40.2866 18.9865C40.5819 19.0096 40.8559 19.149 41.0484 19.374C41.1065 19.4377 42.7602 21.2165 46.8997 21.2165C51.0392 21.2165 52.6919 19.4377 52.7611 19.3629C52.9582 19.1442 53.2332 19.0116 53.5271 18.9937C53.8209 18.9757 54.11 19.0738 54.3323 19.2668C54.5524 19.4606 54.6876 19.7331 54.7084 20.0256C54.7293 20.3181 54.6343 20.6071 54.4439 20.8302C54.3557 20.934 52.1391 23.4499 46.8997 23.4499Z" fill="#042030"/>
<path d="M20.0999 23.4499C14.8605 23.4499 12.6439 20.934 12.5513 20.8257C12.4559 20.7143 12.3835 20.5851 12.3381 20.4457C12.2927 20.3062 12.2752 20.1592 12.2866 20.013C12.298 19.8668 12.3381 19.7243 12.4046 19.5936C12.4711 19.4629 12.5626 19.3465 12.6741 19.2512C12.7855 19.1559 12.9147 19.0835 13.0541 19.038C13.1936 18.9926 13.3406 18.9751 13.4868 18.9865C13.633 18.9979 13.7755 19.038 13.9062 19.1045C14.0369 19.171 14.1533 19.2626 14.2486 19.374C14.3067 19.4377 15.9604 21.2165 20.0999 21.2165C24.2394 21.2165 25.8921 19.4377 25.9613 19.3629C26.1584 19.1442 26.4334 19.0116 26.7273 18.9937C27.0211 18.9757 27.3102 19.0738 27.5325 19.2668C27.7526 19.4606 27.8877 19.7331 27.9086 20.0256C27.9295 20.3181 27.8345 20.6071 27.6441 20.8302C27.5559 20.934 25.3393 23.4499 20.0999 23.4499Z" fill="#042030"/>
<path d="M44.6667 54.7166C44.4247 54.7164 44.1893 54.6375 43.9959 54.4919C43.8026 54.3463 43.6618 54.1418 43.5947 53.9092C42.8957 51.8068 41.5343 49.9875 39.7144 48.7239C37.8945 47.4602 35.7142 46.8203 33.5001 46.8999C31.2859 46.8203 29.1056 47.4603 27.2858 48.7242C25.4661 49.9881 24.105 51.8077 23.4065 53.9103C23.3248 54.1951 23.1333 54.4357 22.8741 54.5793C22.615 54.7228 22.3094 54.7576 22.0247 54.6758C21.7399 54.5941 21.4993 54.4026 21.3557 54.1434C21.2122 53.8843 21.1774 53.5787 21.2592 53.294C22.1153 50.7401 23.7642 48.5261 25.9659 46.9744C28.1676 45.4227 30.807 44.6142 33.5001 44.6666C36.1931 44.6142 38.8326 45.4227 41.0343 46.9744C43.2359 48.5261 44.8849 50.7401 45.741 53.294C45.7812 53.435 45.7932 53.5826 45.7764 53.7284C45.7595 53.8741 45.7141 54.015 45.6428 54.1432C45.5715 54.2714 45.4756 54.3843 45.3606 54.4754C45.2456 54.5665 45.1138 54.634 44.9727 54.6742C44.8731 54.7019 44.7702 54.7162 44.6667 54.7166Z" fill="#042030"/>
<circle cx="16.5" cy="28.5" r="2.5" fill="white"/>
<circle cx="43.5" cy="28.5" r="2.5" fill="white"/>
<defs>
<linearGradient id="paint0_linear_51_4918" x1="53.4418" y1="65.8834" x2="-29.8583" y2="-86.9425" gradientUnits="userSpaceOnUse">
<stop stop-color="#D19B6F"/>
<stop offset="1" stop-color="#F6E5C3"/>
</linearGradient>
</defs>
</svg>
