<svg width="38" height="39" viewBox="0 0 38 39" fill="none" xmlns="http://www.w3.org/2000/svg">
<g filter="url(#filter0_b_56_15964)">
<rect y="1" width="38" height="38" rx="19" fill="#D19B6F" fill-opacity="0.3"/>
</g>
<path d="M28.382 25.212C28.2704 24.0494 27.2326 23.1364 26.024 23.1364C25.8795 23.1364 25.7646 23.0215 25.7646 22.8769V19.0083C25.7646 16.1347 23.9255 13.6289 21.3934 12.6929C21.4229 12.5451 21.4393 12.3941 21.4393 12.243C21.4394 11.005 20.4345 10 19.1963 10C17.9582 10 16.9533 11.005 16.9533 12.2431C16.9533 12.3909 16.9697 12.5386 16.996 12.6798C16.1257 12.9885 15.3211 13.4779 14.6347 14.1413C13.3408 15.3892 12.6281 17.0674 12.6281 18.8671V22.877C12.6281 23.0182 12.5132 23.1365 12.3687 23.1365C11.1568 23.1365 10.1223 24.0494 10.0107 25.212C9.94825 25.859 10.1618 26.5027 10.5985 26.9822C11.032 27.4584 11.6527 27.7342 12.2997 27.7342H16.2603C16.4245 29.2088 17.6791 30.3615 19.1963 30.3615C20.7136 30.3615 21.9682 29.2088 22.1324 27.7342H26.093C26.74 27.7342 27.3607 27.4584 27.7942 26.9822C28.2276 26.5026 28.4444 25.859 28.382 25.212ZM19.1963 11.3136C19.7086 11.3136 20.1257 11.7307 20.1257 12.243C20.1257 12.2857 20.1191 12.3251 20.1126 12.3678C19.8892 12.3349 19.6626 12.3119 19.436 12.3054C19.0452 12.2922 18.661 12.3185 18.28 12.3711C18.2734 12.3284 18.2669 12.289 18.2669 12.2463C18.267 11.7307 18.684 11.3136 19.1963 11.3136ZM19.1963 29.0478C18.4049 29.0478 17.7415 28.4829 17.5871 27.7342H20.8055C20.6512 28.483 19.9879 29.0478 19.1963 29.0478ZM26.822 26.0987C26.6316 26.3056 26.3754 26.4205 26.093 26.4205H12.2997C12.0173 26.4205 11.7612 26.3056 11.5706 26.0987C11.3802 25.8918 11.2915 25.6192 11.321 25.3368C11.367 24.8409 11.8301 24.4501 12.372 24.4501C13.239 24.4501 13.9451 23.744 13.9451 22.877V18.8671C13.9451 17.4286 14.5165 16.0855 15.551 15.0871C16.5362 14.1314 17.8236 13.6125 19.1963 13.6125C19.262 13.6125 19.3244 13.6125 19.3901 13.6158C22.1783 13.7143 24.4509 16.1347 24.4509 19.0083V22.877C24.4509 23.744 25.157 24.4501 26.024 24.4501C26.5659 24.4501 27.029 24.8409 27.0749 25.3368C27.1012 25.6192 27.0125 25.8885 26.822 26.0987Z" fill="white"/>
<path d="M10.6907 17.8819C10.9929 17.8819 11.2654 17.6717 11.3311 17.3663C11.6497 15.9245 12.3689 14.6109 13.4198 13.5666C13.676 13.3104 13.676 12.8933 13.4198 12.6372C13.1636 12.381 12.7465 12.381 12.4904 12.6372C11.2622 13.8588 10.4181 15.3991 10.0471 17.0871C9.96826 17.4417 10.1916 17.7931 10.5463 17.8687C10.5988 17.8786 10.6448 17.8819 10.6907 17.8819Z" fill="white"/>
<path d="M27.7038 17.8818C27.7497 17.8818 27.799 17.8753 27.845 17.8654C28.1997 17.7866 28.423 17.4385 28.3442 17.0838C27.9731 15.3958 27.1291 13.8588 25.9008 12.6338C25.6446 12.3777 25.2275 12.3777 24.9714 12.6338C24.7153 12.89 24.7152 13.3071 24.9714 13.5632C26.019 14.6076 26.7415 15.9212 27.0601 17.3629C27.1291 17.6716 27.4016 17.8818 27.7038 17.8818Z" fill="white"/>
<circle cx="30.5" cy="5.5" r="5.5" fill="#FF3535"/>
<defs>
<filter id="filter0_b_56_15964" x="-50" y="-49" width="138" height="138" filterUnits="userSpaceOnUse" color-interpolation-filters="sRGB">
<feFlood flood-opacity="0" result="BackgroundImageFix"/>
<feGaussianBlur in="BackgroundImageFix" stdDeviation="25"/>
<feComposite in2="SourceAlpha" operator="in" result="effect1_backgroundBlur_56_15964"/>
<feBlend mode="normal" in="SourceGraphic" in2="effect1_backgroundBlur_56_15964" result="shape"/>
</filter>
</defs>
</svg>
