<svg width="48" height="48" viewBox="0 0 48 48" fill="none" xmlns="http://www.w3.org/2000/svg">
<rect width="48" height="48" rx="24" fill="url(#paint0_linear_27_2608)"/>
<path d="M22.65 31.11V16.89C22.65 15.54 22.08 15 20.64 15H17.01C15.57 15 15 15.54 15 16.89V31.11C15 32.46 15.57 33 17.01 33H20.64C22.08 33 22.65 32.46 22.65 31.11Z" fill="#121212"/>
<path d="M33.0001 31.11V16.89C33.0001 15.54 32.4301 15 30.9901 15H27.3601C25.9301 15 25.3501 15.54 25.3501 16.89V31.11C25.3501 32.46 25.9201 33 27.3601 33H30.9901C32.4301 33 33.0001 32.46 33.0001 31.11Z" fill="#121212"/>
<defs>
<linearGradient id="paint0_linear_27_2608" x1="43.5" y1="7.49999" x2="-49.5" y2="110" gradientUnits="userSpaceOnUse">
<stop stop-color="white"/>
<stop offset="1" stop-color="white" stop-opacity="0"/>
</linearGradient>
</defs>
</svg>
