<svg width="15" height="22" viewBox="0 0 15 22" fill="none" xmlns="http://www.w3.org/2000/svg">
<path d="M5.8125 1.375H3.28125C2.60992 1.375 1.96609 1.5923 1.49139 1.97909C1.01668 2.36589 0.75 2.89049 0.75 3.4375V18.5625C0.75 19.1095 1.01668 19.6341 1.49139 20.0209C1.96609 20.4077 2.60992 20.625 3.28125 20.625H11.7188C12.3901 20.625 13.0339 20.4077 13.5086 20.0209C13.9833 19.6341 14.25 19.1095 14.25 18.5625V3.4375C14.25 2.89049 13.9833 2.36589 13.5086 1.97909C13.0339 1.5923 12.3901 1.375 11.7188 1.375H9.1875M5.8125 1.375V2.75H9.1875V1.375M5.8125 1.375H9.1875M5.8125 18.5625H9.1875" stroke="#7A808A" stroke-width="1.5" stroke-linecap="round" stroke-linejoin="round"/>
</svg>
