<svg width="53" height="54" viewBox="0 0 53 54" fill="none" xmlns="http://www.w3.org/2000/svg">
<g filter="url(#filter0_d_56_14908)">
<rect x="2.65" y="0.813986" width="43.7" height="43.7" rx="21.85" fill="#FFEAC1" stroke="#D19B6F" stroke-width="1.3"/>
<path d="M33.4082 20.3306C34.9702 21.2597 34.9702 23.5212 33.4082 24.4503L21.5244 31.5194C19.9268 32.4697 17.9024 31.3184 17.9024 29.4595L17.9024 15.3214C17.9024 13.4625 19.9268 12.3112 21.5244 13.2615L33.4082 20.3306Z" fill="url(#paint0_linear_56_14908)"/>
<path d="M4.13452 14.2167C4.13452 6.36501 10.4995 0 18.3512 0H30.3471C38.0924 0 44.3712 6.27879 44.3712 14.0241C44.3712 20.4586 39.155 25.6749 32.7205 25.6749H15.5927C9.26454 25.6749 4.13452 20.5448 4.13452 14.2167Z" fill="url(#paint1_linear_56_14908)"/>
</g>
<defs>
<filter id="filter0_d_56_14908" x="0" y="0" width="53" height="53.164" filterUnits="userSpaceOnUse" color-interpolation-filters="sRGB">
<feFlood flood-opacity="0" result="BackgroundImageFix"/>
<feColorMatrix in="SourceAlpha" type="matrix" values="0 0 0 0 0 0 0 0 0 0 0 0 0 0 0 0 0 0 127 0" result="hardAlpha"/>
<feOffset dx="2" dy="4"/>
<feGaussianBlur stdDeviation="2"/>
<feComposite in2="hardAlpha" operator="out"/>
<feColorMatrix type="matrix" values="0 0 0 0 0.819608 0 0 0 0 0.607843 0 0 0 0 0.435294 0 0 0 0.23 0"/>
<feBlend mode="normal" in2="BackgroundImageFix" result="effect1_dropShadow_56_14908"/>
<feBlend mode="normal" in="SourceGraphic" in2="effect1_dropShadow_56_14908" result="shape"/>
</filter>
<linearGradient id="paint0_linear_56_14908" x1="24.2253" y1="7.82859" x2="24.2253" y2="34.4615" gradientUnits="userSpaceOnUse">
<stop stop-color="#D19B6F"/>
<stop offset="1" stop-color="#BF8657"/>
</linearGradient>
<linearGradient id="paint1_linear_56_14908" x1="24.2529" y1="0" x2="24.2529" y2="25.6749" gradientUnits="userSpaceOnUse">
<stop offset="0.010293" stop-color="white" stop-opacity="0.75"/>
<stop offset="1" stop-color="white" stop-opacity="0.2"/>
</linearGradient>
</defs>
</svg>
