<svg width="36" height="35" viewBox="0 0 36 35" fill="none" xmlns="http://www.w3.org/2000/svg">
<circle cx="17.5967" cy="17.5" r="17" fill="white" stroke="#F6E5C3"/>
<path d="M15.8634 10H11.3658C10.6127 10 10 10.6127 10 11.3658V15.8634C10 16.6165 10.6127 17.2292 11.3658 17.2292H15.8634C16.6165 17.2292 17.2292 16.6165 17.2292 15.8634V11.3658C17.2292 10.6127 16.6165 10 15.8634 10ZM16.0585 15.8634C16.0585 15.971 15.971 16.0585 15.8634 16.0585H11.3658C11.2583 16.0585 11.1707 15.971 11.1707 15.8634V11.3658C11.1707 11.2583 11.2583 11.1707 11.3658 11.1707H15.8634C15.971 11.1707 16.0585 11.2583 16.0585 11.3658V15.8634Z" fill="#A7A7A7"/>
<path d="M24.6342 10H20.1367C19.3835 10 18.7708 10.6127 18.7708 11.3658V15.8634C18.7708 16.6165 19.3835 17.2292 20.1367 17.2292H24.6342C25.3873 17.2292 26 16.6165 26 15.8634V11.3658C26 10.6127 25.3873 10 24.6342 10Z" fill="#A7A7A7"/>
<path d="M15.8634 18.7708H11.3658C10.6127 18.7708 10 19.3835 10 20.1367V24.6342C10 25.3873 10.6127 26 11.3658 26H15.8634C16.6165 26 17.2292 25.3873 17.2292 24.6342V20.1367C17.2292 19.3835 16.6165 18.7708 15.8634 18.7708Z" fill="#A7A7A7"/>
<path d="M24.6342 18.7708H20.1367C19.3835 18.7708 18.7708 19.3835 18.7708 20.1367V24.6342C18.7708 25.3873 19.3835 26 20.1367 26H24.6342C25.3873 26 26 25.3873 26 24.6342V20.1367C26 19.3835 25.3873 18.7708 24.6342 18.7708ZM24.8293 24.6342C24.8293 24.7418 24.7418 24.8293 24.6342 24.8293H20.1367C20.0291 24.8293 19.9415 24.7418 19.9415 24.6342V20.1367C19.9415 20.0291 20.0291 19.9415 20.1367 19.9415H24.6342C24.7418 19.9415 24.8293 20.0291 24.8293 20.1367V24.6342Z" fill="#A7A7A7"/>
</svg>
