<svg width="18" height="21" viewBox="0 0 18 21" fill="none" xmlns="http://www.w3.org/2000/svg">
<path d="M17.1818 3.27273H13.0909V2.45455C13.0909 1.10111 11.9898 0 10.6364 0H7.36364C6.0102 0 4.90909 1.10111 4.90909 2.45455V3.27273H0.818182C0.3663 3.27273 0 3.63903 0 4.09091C0 4.54279 0.3663 4.90909 0.818182 4.90909C1.26933 4.90909 1.63636 5.27613 1.63636 5.72727V18.4909C1.63636 19.8443 2.73747 20.9455 4.09091 20.9455H13.9091C15.2625 20.9455 16.3636 19.8443 16.3636 18.4909V5.72727C16.3636 5.27613 16.7307 4.90909 17.1818 4.90909C17.6337 4.90909 18 4.54279 18 4.09091C18 3.63903 17.6337 3.27273 17.1818 3.27273ZM6.54545 2.45455C6.54545 2.0034 6.91249 1.63636 7.36364 1.63636H10.6364C11.0875 1.63636 11.4545 2.0034 11.4545 2.45455V3.27273H6.54545V2.45455ZM14.7273 5.72727V18.4909C14.7273 18.9421 14.3602 19.3091 13.9091 19.3091H4.09091C3.63976 19.3091 3.27273 18.9421 3.27273 18.4909V5.72727C3.27273 5.44046 3.22282 5.16518 3.132 4.90909H14.868C14.7772 5.16518 14.7273 5.44046 14.7273 5.72727Z" fill="#7A808A"/>
<path d="M5.72638 6.54547C5.2745 6.54547 4.9082 6.91177 4.9082 7.36365V16.8546C4.9082 17.3064 5.2745 17.6727 5.72638 17.6727C6.17827 17.6727 6.54457 17.3064 6.54457 16.8546V7.36365C6.54457 6.91177 6.17827 6.54547 5.72638 6.54547Z" fill="#7A808A"/>
<path d="M8.99885 6.54547C8.54696 6.54547 8.18066 6.91177 8.18066 7.36365V16.8546C8.18066 17.3064 8.54696 17.6727 8.99885 17.6727C9.45073 17.6727 9.81703 17.3064 9.81703 16.8546V7.36365C9.81703 6.91177 9.45073 6.54547 8.99885 6.54547Z" fill="#7A808A"/>
<path d="M11.4551 7.36365V16.8546C11.4551 17.3064 11.8214 17.6727 12.2733 17.6727C12.7251 17.6727 13.0914 17.3064 13.0914 16.8546V7.36365C13.0914 6.91177 12.7251 6.54547 12.2733 6.54547C11.8214 6.54547 11.4551 6.91177 11.4551 7.36365Z" fill="#7A808A"/>
</svg>
