<svg width="13" height="13" viewBox="0 0 13 13" fill="none" xmlns="http://www.w3.org/2000/svg">
<path d="M6.50011 8.86382H4.13642V0.59093C4.13644 0.264577 3.87182 0 3.54551 0C3.21914 0 2.95458 0.264577 2.95458 0.59093V8.86382H0.590915C0.351958 8.86382 0.136412 9.00782 0.0449784 9.22862C-0.0464554 9.44942 0.00409853 9.70361 0.173103 9.87262L3.12768 12.8272C3.23848 12.938 3.38877 13.0003 3.54554 13.0003C3.70225 13.0003 3.85255 12.938 3.96333 12.8272L6.91793 9.87259C7.08698 9.70359 7.13751 9.44942 7.04605 9.22859C6.95459 9.00782 6.7391 8.86382 6.50011 8.86382Z" fill="#D19B6F"/>
<path d="M12.827 3.12765L9.8724 0.173025C9.64167 -0.0577562 9.26751 -0.0577562 9.03673 0.173025L6.08213 3.12765C5.91317 3.29665 5.86262 3.55082 5.954 3.77165C6.04549 3.99245 6.26096 4.13644 6.49996 4.13644H8.86366V12.4094C8.86366 12.7357 9.12818 13.0003 9.45459 13.0003C9.78089 13.0003 10.0455 12.7357 10.0455 12.4094V4.13642H12.4092C12.6482 4.13642 12.8637 3.99242 12.9551 3.77162C13.0466 3.55077 12.9961 3.29665 12.827 3.12765Z" fill="#D19B6F"/>
</svg>
