<svg width="16" height="18" viewBox="0 0 16 18" fill="none" xmlns="http://www.w3.org/2000/svg">
<path d="M15.904 12.7962C15.1162 11.4531 13.9833 10.3265 12.6278 9.53847C12.081 9.22055 11.503 8.96169 10.9045 8.76393C12.1243 7.88022 12.9176 6.4557 12.9176 4.85156C12.9176 2.17639 10.7116 0 7.99999 0C5.28842 0 3.08242 2.17639 3.08242 4.85156C3.08242 6.4557 3.87585 7.88022 5.0955 8.76393C4.49695 8.96169 3.919 9.22069 3.37223 9.53847C2.01673 10.3266 0.883799 11.4531 0.0959419 12.7963C-0.0319806 13.0141 -0.0319806 13.2827 0.0959419 13.5007C1.68196 16.2044 4.6406 18 7.99999 18C11.3588 18 14.3177 16.205 15.9042 13.5007C16.032 13.2827 16.032 13.0141 15.904 12.7962ZM4.50781 4.85156C4.50781 2.95175 6.07433 1.40625 7.99999 1.40625C9.92565 1.40625 11.4922 2.95175 11.4922 4.85156C11.4922 6.75137 9.92565 8.29688 7.99999 8.29688C6.07433 8.29688 4.50781 6.75137 4.50781 4.85156ZM7.99999 16.5938C5.39422 16.5938 2.97705 15.302 1.54944 13.1484C2.19852 12.1693 3.07198 11.3453 4.09592 10.75C5.27409 10.0651 6.62402 9.70312 7.99999 9.70312C9.37596 9.70312 10.7259 10.0651 11.9041 10.75C12.928 11.3453 13.8016 12.1694 14.4507 13.1484C13.0249 15.2993 10.6088 16.5938 7.99999 16.5938Z" fill="#042030"/>
</svg>
