<svg width="32" height="31" viewBox="0 0 32 31" fill="none" xmlns="http://www.w3.org/2000/svg">
<g clip-path="url(#clip0_139_585)">
<path d="M1.35938 15.2276C1.35866 17.8075 2.03801 20.3265 3.32979 22.5468L2.41012 29.0582L9.05992 28.0973C11.224 29.2663 13.6486 29.8788 16.1125 29.8789H16.119C24.2529 29.8789 30.8741 23.3115 30.8776 15.2392C30.8791 11.3276 29.3453 7.6494 26.5586 4.88212C23.7723 2.11508 20.0667 0.590408 16.1184 0.588623C7.98356 0.588623 1.36273 7.15574 1.35938 15.2276Z" fill="url(#paint0_linear_139_585)"/>
<path d="M12.2989 8.88335C12.0127 8.25223 11.7115 8.23949 11.4394 8.22842C11.2165 8.2189 10.9617 8.21962 10.7072 8.21962C10.4525 8.21962 10.0386 8.31471 9.68868 8.69376C9.33845 9.07317 8.35156 9.99005 8.35156 11.8549C8.35156 13.7198 9.72046 15.522 9.91129 15.7751C10.1024 16.0278 12.554 19.9771 16.4368 21.4964C19.6637 22.759 20.3204 22.5079 21.0207 22.4446C21.7212 22.3815 23.2809 21.528 23.5991 20.6429C23.9176 19.7579 23.9176 18.9993 23.8221 18.8408C23.7266 18.6828 23.4719 18.588 23.0898 18.3985C22.7077 18.2089 20.8296 17.2919 20.4795 17.1654C20.1293 17.039 19.8747 16.976 19.6199 17.3555C19.3652 17.7344 18.6336 18.588 18.4106 18.8408C18.1879 19.0942 17.9649 19.1257 17.583 18.9361C17.2008 18.7459 15.9705 18.3462 14.511 17.055C13.3753 16.0503 12.6087 14.8096 12.3858 14.43C12.163 14.0511 12.362 13.8457 12.5535 13.6568C12.7251 13.487 12.9356 13.2142 13.1268 12.993C13.3173 12.7716 13.3809 12.6137 13.5082 12.3609C13.6357 12.1079 13.5719 11.8865 13.4766 11.6969C13.3809 11.5073 12.6385 9.63277 12.2989 8.88335Z" fill="white"/>
</g>
<defs>
<linearGradient id="paint0_linear_139_585" x1="1483.32" y1="2955.02" x2="1483.32" y2="0.588623" gradientUnits="userSpaceOnUse">
<stop stop-color="#1FAF38"/>
<stop offset="1" stop-color="#60D669"/>
</linearGradient>
<clipPath id="clip0_139_585">
<rect width="30.7052" height="30.7052" fill="white" transform="translate(0.703125 0.0588379)"/>
</clipPath>
</defs>
</svg>
